<?xml version='1.0' encoding='UTF-8' standalone='no'?>
<svg width="576pt" viewBox="0 0 576 432" xmlns:xlink="http://www.w3.org/1999/xlink" xmlns="http://www.w3.org/2000/svg" height="432pt">
 <title>Taylor Series for 2arctan(tanh(x/2))</title>
 <desc>
@author: Oscar Veliz
Creator: GL2PS 1.4.0, (C) 1999-2017 C. Geuzaine
For: Octave
CreationDate: Thu Feb 20 13:48:47 2020
</desc>
 <defs/>
 <polygon fill="none" points="0,0 576,0 576,432 0,432"/>
 <g>
  <polygon fill="none" shape-rendering="crispEdges" points="0,432 576,432 576,0 0,0"/>
  <clipPath id="cp00576432">
   <polygon points="0,432 576,432 576,0 0,0"/>
  </clipPath>
  <g clip-path="url(#cp00576432)">
   <polygon fill="none" shape-rendering="crispEdges" points="74.88,343.917 521.28,343.917 521.28,31.9608 74.88,31.9608"/>
   <polyline stroke-width="0.5" fill="none" stroke-linecap="butt" stroke-linejoin="miter" stroke="#262626" points="74.88,343.917 74.88,339.454"/>
   <polyline stroke-width="0.5" fill="none" stroke-linecap="butt" stroke-linejoin="miter" stroke="#262626" points="74.88,31.9608 74.88,36.4242"/>
   <polyline stroke-width="0.5" fill="none" stroke-linecap="butt" stroke-linejoin="miter" stroke="#262626" points="186.48,343.917 186.48,339.454"/>
   <polyline stroke-width="0.5" fill="none" stroke-linecap="butt" stroke-linejoin="miter" stroke="#262626" points="186.48,31.9608 186.48,36.4242"/>
   <polyline stroke-width="0.5" fill="none" stroke-linecap="butt" stroke-linejoin="miter" stroke="#262626" points="298.08,343.917 298.08,339.454"/>
   <polyline stroke-width="0.5" fill="none" stroke-linecap="butt" stroke-linejoin="miter" stroke="#262626" points="298.08,31.9608 298.08,36.4242"/>
   <polyline stroke-width="0.5" fill="none" stroke-linecap="butt" stroke-linejoin="miter" stroke="#262626" points="409.68,343.917 409.68,339.454"/>
   <polyline stroke-width="0.5" fill="none" stroke-linecap="butt" stroke-linejoin="miter" stroke="#262626" points="409.68,31.9608 409.68,36.4242"/>
   <polyline stroke-width="0.5" fill="none" stroke-linecap="butt" stroke-linejoin="miter" stroke="#262626" points="521.28,343.917 521.28,339.454"/>
   <polyline stroke-width="0.5" fill="none" stroke-linecap="butt" stroke-linejoin="miter" stroke="#262626" points="521.28,31.9608 521.28,36.4242"/>
   <text transform="translate(70.38,359.416) rotate(-0,4.5,-8)" xml:space="preserve" font-family="FreeSans" font-weight="normal" font-style="normal" font-size="10">
    <tspan fill="rgb(38,38,38)" x="0 3 " y="-0">-2</tspan>
   </text>
   <text transform="translate(181.98,359.416) rotate(-0,4.5,-8)" xml:space="preserve" font-family="FreeSans" font-weight="normal" font-style="normal" font-size="10">
    <tspan fill="rgb(38,38,38)" x="0 3 " y="-0">-1</tspan>
   </text>
   <text transform="translate(295.08,359.416) rotate(-0,3,-8)" xml:space="preserve" font-family="FreeSans" font-weight="normal" font-style="normal" font-size="10">
    <tspan fill="rgb(38,38,38)" x="0 " y="-0">0</tspan>
   </text>
   <text transform="translate(406.68,359.416) rotate(-0,3,-8)" xml:space="preserve" font-family="FreeSans" font-weight="normal" font-style="normal" font-size="10">
    <tspan fill="rgb(38,38,38)" x="0 " y="-0">1</tspan>
   </text>
   <text transform="translate(518.28,359.416) rotate(-0,3,-8)" xml:space="preserve" font-family="FreeSans" font-weight="normal" font-style="normal" font-size="10">
    <tspan fill="rgb(38,38,38)" x="0 " y="-0">2</tspan>
   </text>
   <polyline stroke-width="0.5" fill="none" stroke-linecap="butt" stroke-linejoin="miter" stroke="#262626" points="74.88,343.917 79.348,343.917"/>
   <polyline stroke-width="0.5" fill="none" stroke-linecap="butt" stroke-linejoin="miter" stroke="#262626" points="521.28,343.917 516.812,343.917"/>
   <polyline stroke-width="0.5" fill="none" stroke-linecap="butt" stroke-linejoin="miter" stroke="#262626" points="74.88,265.928 79.348,265.928"/>
   <polyline stroke-width="0.5" fill="none" stroke-linecap="butt" stroke-linejoin="miter" stroke="#262626" points="521.28,265.928 516.812,265.928"/>
   <polyline stroke-width="0.5" fill="none" stroke-linecap="butt" stroke-linejoin="miter" stroke="#262626" points="74.88,187.939 79.348,187.939"/>
   <polyline stroke-width="0.5" fill="none" stroke-linecap="butt" stroke-linejoin="miter" stroke="#262626" points="521.28,187.939 516.812,187.939"/>
   <polyline stroke-width="0.5" fill="none" stroke-linecap="butt" stroke-linejoin="miter" stroke="#262626" points="74.88,109.95 79.348,109.95"/>
   <polyline stroke-width="0.5" fill="none" stroke-linecap="butt" stroke-linejoin="miter" stroke="#262626" points="521.28,109.95 516.812,109.95"/>
   <polyline stroke-width="0.5" fill="none" stroke-linecap="butt" stroke-linejoin="miter" stroke="#262626" points="74.88,31.9608 79.348,31.9608"/>
   <polyline stroke-width="0.5" fill="none" stroke-linecap="butt" stroke-linejoin="miter" stroke="#262626" points="521.28,31.9608 516.812,31.9608"/>
   <text transform="translate(60.8755,347.917) rotate(-0,9,-4)" xml:space="preserve" font-family="FreeSans" font-weight="normal" font-style="normal" font-size="10">
    <tspan fill="rgb(38,38,38)" x="0 3 " y="-0">-2</tspan>
   </text>
   <text transform="translate(60.8755,269.928) rotate(-0,9,-4)" xml:space="preserve" font-family="FreeSans" font-weight="normal" font-style="normal" font-size="10">
    <tspan fill="rgb(38,38,38)" x="0 3 " y="-0">-1</tspan>
   </text>
   <text transform="translate(63.8755,191.939) rotate(-0,6,-4)" xml:space="preserve" font-family="FreeSans" font-weight="normal" font-style="normal" font-size="10">
    <tspan fill="rgb(38,38,38)" x="0 " y="-0">0</tspan>
   </text>
   <text transform="translate(63.8755,113.95) rotate(-0,6,-4)" xml:space="preserve" font-family="FreeSans" font-weight="normal" font-style="normal" font-size="10">
    <tspan fill="rgb(38,38,38)" x="0 " y="-0">1</tspan>
   </text>
   <text transform="translate(63.8755,35.9608) rotate(-0,6,-4)" xml:space="preserve" font-family="FreeSans" font-weight="normal" font-style="normal" font-size="10">
    <tspan fill="rgb(38,38,38)" x="0 " y="-0">2</tspan>
   </text>
   <polyline stroke-width="0.5" stroke-dasharray="16,0" fill="none" stroke-linecap="square" stroke-linejoin="miter" stroke="#262626" points="74.88,343.917 521.28,343.917"/>
   <polyline stroke-width="0.5" stroke-dasharray="16,0" fill="none" stroke-linecap="square" stroke-linejoin="miter" stroke="#262626" points="74.88,31.9608 521.28,31.9608"/>
   <polyline stroke-width="0.5" stroke-dasharray="16,0" fill="none" stroke-linecap="square" stroke-linejoin="miter" stroke="#262626" points="74.88,343.917 74.88,31.9608"/>
   <polyline stroke-width="0.5" stroke-dasharray="16,0" fill="none" stroke-linecap="square" stroke-linejoin="miter" stroke="#262626" points="521.28,343.917 521.28,31.9608"/>
   <text transform="translate(242.58,21.9608) rotate(-0,55.5,0)" xml:space="preserve" font-family="FreeSans" font-weight="bold" font-style="normal" font-size="11">
    <tspan fill="rgb(0,0,0)" x="0 7 13 19 22 29 33 36 43 49 53 56 62 68 71 78 84 90 93 99 105 " y="-3">Taylor Series n=5 a=0</tspan>
   </text>
   <text transform="translate(53.3755,187.939) rotate(-90,2.5,0)" xml:space="preserve" font-family="FreeSans" font-weight="normal" font-style="normal" font-size="11">
    <tspan fill="rgb(38,38,38)" x="0 " y="-2">y</tspan>
   </text>
   <text transform="translate(295.58,371.416) rotate(-0,2.5,-7)" xml:space="preserve" font-family="FreeSans" font-weight="normal" font-style="normal" font-size="11">
    <tspan fill="rgb(38,38,38)" x="0 " y="-0">x</tspan>
   </text>
   <polyline stroke-width="0.5" fill="none" stroke-linecap="butt" stroke-linejoin="round" stroke="#000000" points="74.88,289.462 75.3269,289.379 75.7737,289.295 76.2205,289.212 76.6674,289.128 77.1142,289.043 77.5611,288.958 78.0079,288.873 78.4548,288.788 78.9016,288.702 79.3485,288.616 79.7953,288.529 80.2421,288.443 80.689,288.356 81.1358,288.268 81.5827,288.18 82.0295,288.092 82.4764,288.004 82.9232,287.915 83.3701,287.826 83.8169,287.736 84.2638,287.647 84.7106,287.556 85.1575,287.466 85.6043,287.375 86.0512,287.284 86.498,287.192 86.9449,287.1 87.3917,287.008 87.8386,286.916 88.2854,286.823 88.7322,286.729 89.1791,286.636 89.6259,286.542 90.0728,286.447 90.5196,286.352 90.9665,286.257 91.4133,286.162 91.8602,286.066 92.307,285.97 92.7539,285.873 93.2007,285.776 93.6476,285.679 94.0944,285.581 94.5413,285.483 94.9881,285.385 95.435,285.286 95.8818,285.187 96.3286,285.087 96.7755,284.987 97.2223,284.887 97.6692,284.786 98.116,284.685 98.5629,284.584 99.0097,284.482 99.4566,284.38 99.9034,284.277 100.35,284.174 100.797,284.071 101.244,283.967 101.691,283.863 102.138,283.758 102.584,283.653 103.031,283.548 103.478,283.442 103.925,283.336 104.372,283.229 104.819,283.122 105.266,283.015 105.712,282.907 106.159,282.799 106.606,282.69 107.053,282.581 107.5,282.472 107.947,282.362 108.394,282.252 108.84,282.141 109.287,282.03 109.734,281.919 110.181,281.807 110.628,281.694 111.075,281.582 111.521,281.469 111.968,281.355 112.415,281.241 112.862,281.127 113.309,281.012 113.756,280.896 114.203,280.781 114.649,280.665 115.096,280.548 115.543,280.431 115.99,280.314 116.437,280.196 116.884,280.077 117.33,279.959 117.777,279.839 118.224,279.72 118.671,279.6 119.118,279.479 119.565,279.358 120.012,279.237 120.458,279.115 120.905,278.992 121.352,278.87 121.799,278.747 122.246,278.623 122.693,278.499 123.139,278.374 123.586,278.249 124.033,278.124 124.48,277.998 124.927,277.871 125.374,277.744 125.821,277.617 126.267,277.489 126.714,277.361 127.161,277.232 127.608,277.103 128.055,276.973 128.502,276.843 128.948,276.712 129.395,276.581 129.842,276.45 130.289,276.317 130.736,276.185 131.183,276.052 131.63,275.918 132.076,275.784 132.523,275.65 132.97,275.515 133.417,275.379 133.864,275.243 134.311,275.107 134.757,274.97 135.204,274.833 135.651,274.695 136.098,274.556 136.545,274.417 136.992,274.278 137.439,274.138 137.885,273.997 138.332,273.857 138.779,273.715 139.226,273.573 139.673,273.431 140.12,273.288 140.566,273.144 141.013,273 141.46,272.856 141.907,272.711 142.354,272.565 142.801,272.419 143.248,272.273 143.694,272.126 144.141,271.978 144.588,271.83 145.035,271.681 145.482,271.532 145.929,271.383 146.375,271.232 146.822,271.082 147.269,270.93 147.716,270.779 148.163,270.626 148.61,270.473 149.057,270.32 149.503,270.166 149.95,270.012 150.397,269.857 150.844,269.701 151.291,269.545 151.738,269.388 152.184,269.231 152.631,269.073 153.078,268.915 153.525,268.756 153.972,268.597 154.419,268.437 154.866,268.277 155.312,268.116 155.759,267.954 156.206,267.792 156.653,267.629 157.1,267.466 157.547,267.302 157.994,267.138 158.44,266.973 158.887,266.807 159.334,266.641 159.781,266.475 160.228,266.308 160.675,266.14 161.121,265.972 161.568,265.803 162.015,265.633 162.462,265.463 162.909,265.293 163.356,265.122 163.803,264.95 164.249,264.778 164.696,264.605 165.143,264.431 165.59,264.257 166.037,264.083 166.484,263.908 166.93,263.732 167.377,263.556 167.824,263.379 168.271,263.201 168.718,263.023 169.165,262.844 169.612,262.665 170.058,262.485 170.505,262.305 170.952,262.124 171.399,261.942 171.846,261.76 172.293,261.577 172.739,261.394 173.186,261.21 173.633,261.025 174.08,260.84 174.527,260.654 174.974,260.468 175.421,260.281 175.867,260.093 176.314,259.905 176.761,259.716 177.208,259.527 177.655,259.337 178.102,259.146 178.548,258.955 178.995,258.763 179.442,258.571 179.889,258.378 180.336,258.184 180.783,257.99 181.23,257.795 181.676,257.599 182.123,257.403 182.57,257.207 183.017,257.009 183.464,256.812 183.911,256.613 184.357,256.414 184.804,256.214 185.251,256.014 185.698,255.813 186.145,255.611 186.592,255.409 187.039,255.206 187.485,255.003 187.932,254.799 188.379,254.594 188.826,254.389 189.273,254.183 189.72,253.976 190.166,253.769 190.613,253.561 191.06,253.353 191.507,253.144 191.954,252.934 192.401,252.724 192.848,252.513 193.294,252.301 193.741,252.089 194.188,251.877 194.635,251.663 195.082,251.449 195.529,251.235 195.975,251.019 196.422,250.803 196.869,250.587 197.316,250.37 197.763,250.152 198.21,249.934 198.657,249.715 199.103,249.495 199.55,249.275 199.997,249.054 200.444,248.832 200.891,248.61 201.338,248.387 201.785,248.164 202.231,247.94 202.678,247.715 203.125,247.49 203.572,247.264 204.019,247.038 204.466,246.811 204.912,246.583 205.359,246.354 205.806,246.125 206.253,245.896 206.7,245.666 207.147,245.435 207.594,245.203 208.04,244.971 208.487,244.738 208.934,244.505 209.381,244.271 209.828,244.036 210.275,243.801 210.721,243.565 211.168,243.329 211.615,243.092 212.062,242.854 212.509,242.616 212.956,242.377 213.403,242.137 213.849,241.897 214.296,241.656 214.743,241.415 215.19,241.173 215.637,240.93 216.084,240.687 216.53,240.443 216.977,240.199 217.424,239.954 217.871,239.708 218.318,239.462 218.765,239.215 219.212,238.968 219.658,238.72 220.105,238.471 220.552,238.222 220.999,237.972 221.446,237.721 221.893,237.47 222.339,237.218 222.786,236.966 223.233,236.713 223.68,236.46 224.127,236.206 224.574,235.951 225.021,235.696 225.467,235.44 225.914,235.184 226.361,234.927 226.808,234.669 227.255,234.411 227.702,234.152 228.148,233.893 228.595,233.633 229.042,233.373 229.489,233.111 229.936,232.85 230.383,232.588 230.83,232.325 231.276,232.062 231.723,231.798 232.17,231.533 232.617,231.268 233.064,231.003 233.511,230.736 233.957,230.47 234.404,230.203 234.851,229.935 235.298,229.666 235.745,229.397 236.192,229.128 236.639,228.858 237.085,228.587 237.532,228.316 237.979,228.045 238.426,227.773 238.873,227.5 239.32,227.227 239.766,226.953 240.213,226.679 240.66,226.404 241.107,226.129 241.554,225.853 242.001,225.576 242.448,225.3 242.894,225.022 243.341,224.744 243.788,224.466 244.235,224.187 244.682,223.908 245.129,223.628 245.575,223.347 246.022,223.067 246.469,222.785 246.916,222.503 247.363,222.221 247.81,221.938 248.257,221.655 248.703,221.371 249.15,221.087 249.597,220.802 250.044,220.517 250.491,220.231 250.938,219.945 251.385,219.659 251.831,219.372 252.278,219.084 252.725,218.796 253.172,218.508 253.619,218.219 254.066,217.93 254.512,217.64 254.959,217.35 255.406,217.059 255.853,216.768 256.3,216.477 256.747,216.185 257.194,215.893 257.64,215.6 258.087,215.307 258.534,215.014 258.981,214.72 259.428,214.426 259.875,214.131 260.321,213.836 260.768,213.541 261.215,213.245 261.662,212.949 262.109,212.652 262.556,212.355 263.003,212.058 263.449,211.761 263.896,211.463 264.343,211.164 264.79,210.865 265.237,210.566 265.684,210.267 266.13,209.967 266.577,209.667 267.024,209.367 267.471,209.066 267.918,208.765 268.365,208.464 268.812,208.162 269.258,207.86 269.705,207.558 270.152,207.255 270.599,206.952 271.046,206.649 271.493,206.346 271.939,206.042 272.386,205.738 272.833,205.434 273.28,205.129 273.727,204.824 274.174,204.519 274.621,204.214 275.067,203.908 275.514,203.602 275.961,203.296 276.408,202.99 276.855,202.683 277.302,202.376 277.748,202.069 278.195,201.762 278.642,201.455 279.089,201.147 279.536,200.839 279.983,200.531 280.43,200.223 280.876,199.914 281.323,199.605 281.77,199.296 282.217,198.987 282.664,198.678 283.111,198.369 283.557,198.059 284.004,197.749 284.451,197.44 284.898,197.13 285.345,196.819 285.792,196.509 286.239,196.199 286.685,195.888 287.132,195.577 287.579,195.266 288.026,194.956 288.473,194.644 288.92,194.333 289.366,194.022 289.813,193.711 290.26,193.399 290.707,193.088 291.154,192.776 291.601,192.464 292.048,192.153 292.494,191.841 292.941,191.529 293.388,191.217 293.835,190.905 294.282,190.593 294.729,190.281 295.175,189.969 295.622,189.656 296.069,189.344 296.516,189.032 296.963,188.72 297.41,188.407 297.857,188.095 298.303,187.783 298.75,187.471 299.197,187.158 299.644,186.846 300.091,186.534 300.538,186.222 300.984,185.909 301.431,185.597 301.878,185.285 302.325,184.973 302.772,184.661 303.219,184.349 303.666,184.037 304.112,183.725 304.559,183.414 305.006,183.102 305.453,182.79 305.9,182.479 306.347,182.167 306.794,181.856 307.24,181.545 307.687,181.233 308.134,180.922 308.581,180.611 309.028,180.301 309.475,179.99 309.921,179.679 310.368,179.369 310.815,179.059 311.262,178.748 311.709,178.438 312.156,178.129 312.603,177.819 313.049,177.509 313.496,177.2 313.943,176.891 314.39,176.582 314.837,176.273 315.284,175.964 315.73,175.655 316.177,175.347 316.624,175.039 317.071,174.731 317.518,174.423 317.965,174.116 318.412,173.809 318.858,173.502 319.305,173.195 319.752,172.888 320.199,172.582 320.646,172.276 321.093,171.97 321.539,171.664 321.986,171.359 322.433,171.054 322.88,170.749 323.327,170.444 323.774,170.14 324.221,169.836 324.667,169.532 325.114,169.229 325.561,168.926 326.008,168.623 326.455,168.32 326.902,168.018 327.348,167.716 327.795,167.414 328.242,167.113 328.689,166.812 329.136,166.511 329.583,166.211 330.03,165.911 330.476,165.611 330.923,165.312 331.37,165.013 331.817,164.714 332.264,164.415 332.711,164.117 333.157,163.82 333.604,163.523 334.051,163.226 334.498,162.929 334.945,162.633 335.392,162.337 335.839,162.042 336.285,161.747 336.732,161.452 337.179,161.158 337.626,160.864 338.073,160.571 338.52,160.278 338.966,159.985 339.413,159.693 339.86,159.401 340.307,159.11 340.754,158.819 341.201,158.528 341.648,158.238 342.094,157.948 342.541,157.659 342.988,157.37 343.435,157.082 343.882,156.794 344.329,156.506 344.775,156.219 345.222,155.933 345.669,155.647 346.116,155.361 346.563,155.076 347.01,154.791 347.457,154.507 347.903,154.223 348.35,153.94 348.797,153.657 349.244,153.375 349.691,153.093 350.138,152.811 350.585,152.531 351.031,152.25 351.478,151.97 351.925,151.691 352.372,151.412 352.819,151.134 353.266,150.856 353.712,150.578 354.159,150.302 354.606,150.025 355.053,149.749 355.5,149.474 355.947,149.199 356.393,148.925 356.84,148.651 357.287,148.378 357.734,148.105 358.181,147.833 358.628,147.562 359.075,147.29 359.521,147.02 359.968,146.75 360.415,146.481 360.862,146.212 361.309,145.943 361.756,145.675 362.203,145.408 362.649,145.142 363.096,144.875 363.543,144.61 363.99,144.345 364.437,144.08 364.884,143.816 365.33,143.553 365.777,143.29 366.224,143.028 366.671,142.767 367.118,142.505 367.565,142.245 368.012,141.985 368.458,141.726 368.905,141.467 369.352,141.209 369.799,140.951 370.246,140.694 370.693,140.438 371.139,140.182 371.586,139.927 372.033,139.672 372.48,139.418 372.927,139.165 373.374,138.912 373.821,138.66 374.267,138.408 374.714,138.157 375.161,137.906 375.608,137.656 376.055,137.407 376.502,137.158 376.948,136.91 377.395,136.663 377.842,136.416 378.289,136.17 378.736,135.924 379.183,135.679 379.63,135.435 380.076,135.191 380.523,134.948 380.97,134.705 381.417,134.463 381.864,134.222 382.311,133.981 382.757,133.741 383.204,133.501 383.651,133.262 384.098,133.024 384.545,132.786 384.992,132.549 385.439,132.313 385.885,132.077 386.332,131.842 386.779,131.607 387.226,131.373 387.673,131.14 388.12,130.907 388.566,130.675 389.013,130.443 389.46,130.212 389.907,129.982 390.354,129.753 390.801,129.524 391.248,129.295 391.694,129.067 392.141,128.84 392.588,128.614 393.035,128.388 393.482,128.163 393.929,127.938 394.375,127.714 394.822,127.491 395.269,127.268 395.716,127.046 396.163,126.824 396.61,126.603 397.057,126.383 397.503,126.163 397.95,125.944 398.397,125.726 398.844,125.508 399.291,125.291 399.738,125.075 400.185,124.859 400.631,124.643 401.078,124.429 401.525,124.215 401.972,124.001 402.419,123.789 402.866,123.577 403.312,123.365 403.759,123.154 404.206,122.944 404.653,122.734 405.1,122.525 405.547,122.317 405.993,122.109 406.44,121.902 406.887,121.695 407.334,121.489 407.781,121.284 408.228,121.079 408.675,120.875 409.121,120.672 409.568,120.469 410.015,120.267 410.462,120.065 410.909,119.864 411.356,119.664 411.803,119.464 412.249,119.265 412.696,119.066 413.143,118.869 413.59,118.671 414.037,118.475 414.484,118.279 414.93,118.083 415.377,117.888 415.824,117.694 416.271,117.5 416.718,117.307 417.165,117.115 417.612,116.923 418.058,116.732 418.505,116.541 418.952,116.351 419.399,116.162 419.846,115.973 420.293,115.785 420.739,115.597 421.186,115.41 421.633,115.224 422.08,115.038 422.527,114.853 422.974,114.668 423.421,114.484 423.867,114.301 424.314,114.118 424.761,113.936 425.208,113.754 425.655,113.573 426.102,113.393 426.548,113.213 426.995,113.034 427.442,112.855 427.889,112.677 428.336,112.499 428.783,112.322 429.23,112.146 429.676,111.97 430.123,111.795 430.57,111.621 431.017,111.447 431.464,111.273 431.911,111.1 432.357,110.928 432.804,110.756 433.251,110.585 433.698,110.415 434.145,110.245 434.592,110.075 435.039,109.906 435.485,109.738 435.932,109.57 436.379,109.403 436.826,109.236 437.273,109.07 437.72,108.905 438.166,108.74 438.613,108.576 439.06,108.412 439.507,108.249 439.954,108.086 440.401,107.924 440.848,107.762 441.294,107.601 441.741,107.441 442.188,107.281 442.635,107.122 443.082,106.963 443.529,106.805 443.975,106.647 444.422,106.49 444.869,106.333 445.316,106.177 445.763,106.021 446.21,105.866 446.657,105.712 447.103,105.558 447.55,105.405 447.997,105.252 448.444,105.099 448.891,104.948 449.338,104.796 449.784,104.646 450.231,104.495 450.678,104.346 451.125,104.197 451.572,104.048 452.019,103.9 452.466,103.752 452.912,103.605 453.359,103.459 453.806,103.313 454.253,103.167 454.7,103.022 455.147,102.878 455.594,102.734 456.04,102.59 456.487,102.447 456.934,102.305 457.381,102.163 457.828,102.021 458.275,101.88 458.721,101.74 459.168,101.6 459.615,101.461 460.062,101.322 460.509,101.183 460.956,101.045 461.402,100.908 461.849,100.771 462.296,100.635 462.743,100.499 463.19,100.363 463.637,100.228 464.084,100.094 464.53,99.9597 464.977,99.8261 465.424,99.6931 465.871,99.5605 466.318,99.4285 466.765,99.2968 467.212,99.1657 467.658,99.0351 468.105,98.9049 468.552,98.7752 468.999,98.646 469.446,98.5172 469.893,98.3889 470.339,98.2611 470.786,98.1337 471.233,98.0068 471.68,97.8804 472.127,97.7544 472.574,97.6289 473.021,97.5039 473.467,97.3793 473.914,97.2551 474.361,97.1315 474.808,97.0082 475.255,96.8855 475.702,96.7632 476.148,96.6413 476.595,96.5198 477.042,96.3989 477.489,96.2784 477.936,96.1583 478.383,96.0386 478.83,95.9194 479.276,95.8007 479.723,95.6823 480.17,95.5645 480.617,95.447 481.064,95.33 481.511,95.2134 481.957,95.0973 482.404,94.9816 482.851,94.8663 483.298,94.7514 483.745,94.637 484.192,94.523 484.639,94.4094 485.085,94.2963 485.532,94.1835 485.979,94.0712 486.426,93.9593 486.873,93.8478 487.32,93.7368 487.766,93.6261 488.213,93.5159 488.66,93.4061 489.107,93.2967 489.554,93.1877 490.001,93.0791 490.448,92.9709 490.894,92.8631 491.341,92.7557 491.788,92.6488 492.235,92.5422 492.682,92.436 493.129,92.3303 493.576,92.2249 494.022,92.1199 494.469,92.0154 494.916,91.9112 495.363,91.8074 495.81,91.7039 496.257,91.601 496.703,91.4983 497.15,91.3961 497.597,91.2943 498.044,91.1928 498.491,91.0917 498.938,90.991 499.384,90.8907 499.831,90.7907 500.278,90.6912 500.725,90.592 501.172,90.4932 501.619,90.3947 502.066,90.2967 502.512,90.199 502.959,90.1017 503.406,90.0048 503.853,89.9082 504.3,89.812 504.747,89.7161 505.193,89.6206 505.64,89.5255 506.087,89.4308 506.534,89.3364 506.981,89.2423 507.428,89.1487 507.875,89.0553 508.321,88.9624 508.768,88.8698 509.215,88.7775 509.662,88.6856 510.109,88.5941 510.556,88.5029 511.003,88.412 511.449,88.3215 511.896,88.2314 512.343,88.1415 512.79,88.0521 513.237,87.9629 513.684,87.8741 514.13,87.7857 514.577,87.6976 515.024,87.6098 515.471,87.5224 515.918,87.4353 516.365,87.3485 516.812,87.2621 517.258,87.176 517.705,87.0902 518.152,87.0048 518.599,86.9197 519.046,86.8349 519.493,86.7505 519.939,86.6663 520.386,86.5825 520.833,86.4991 521.28,86.4159"/>
   <polyline stroke-width="0.5" stroke-dasharray="4,4,4,4" fill="none" stroke-linecap="butt" stroke-linejoin="round" stroke="#ff0000" points="74.88,343.917 82.8514,331.806 90.8229,321.307 98.7943,312.195 106.766,304.261 114.737,297.318 122.709,291.193 130.68,285.73 138.651,280.791 146.623,276.251 154.594,272.002 162.566,267.946 170.537,264.002 178.509,260.1 186.48,256.179 194.451,252.194 202.423,248.105 210.394,243.884 218.366,239.513 226.337,234.978 234.309,230.277 242.28,225.41 250.251,220.387 258.223,215.219 266.194,209.925 274.166,204.525 282.137,199.043 290.109,193.505 298.08,187.939 306.051,182.373 314.023,176.835 321.994,171.353 329.966,165.953 337.937,160.659 345.909,155.491 353.88,150.468 361.851,145.601 369.823,140.9 377.794,136.365 385.766,131.994 393.737,127.773 401.709,123.684 409.68,119.699 417.651,115.778 425.623,111.876 433.594,107.932 441.566,103.876 449.537,99.6267 457.509,95.0871 465.48,90.148 473.451,84.6853 481.423,78.5599 489.394,71.6166 497.366,63.6834 505.337,54.5711 513.309,44.0723 521.28,31.9608"/>
  </g>
  <clipPath id="cp00576432">
   <polygon points="0,432 576,432 576,0 0,0"/>
  </clipPath>
  <g clip-path="url(#cp00576432)">
   <polygon fill="none" shape-rendering="crispEdges" points="233.412,422.373 362.747,422.373 362.747,382.249 233.412,382.249"/>
   <polyline stroke-width="0.5" stroke-dasharray="16,0" fill="none" stroke-linecap="square" stroke-linejoin="miter" stroke="#262626" points="233.412,422.373 362.747,422.373"/>
   <polyline stroke-width="0.5" stroke-dasharray="16,0" fill="none" stroke-linecap="square" stroke-linejoin="miter" stroke="#262626" points="233.412,382.249 362.747,382.249"/>
   <polyline stroke-width="0.5" stroke-dasharray="16,0" fill="none" stroke-linecap="square" stroke-linejoin="miter" stroke="#262626" points="233.412,422.373 233.412,382.249"/>
   <polyline stroke-width="0.5" stroke-dasharray="16,0" fill="none" stroke-linecap="square" stroke-linejoin="miter" stroke="#262626" points="362.747,422.373 362.747,382.249"/>
   <text transform="translate(280.069,397.28) rotate(-0,-0,-5)" xml:space="preserve" font-family="FreeSans" font-weight="normal" font-style="normal" font-size="9">
    <tspan fill="rgb(0,0,0)" x="0 5 9 14 17 22 27 30 33 38 43 48 51 55 58 63 66 " y="-2">2*atan(tanh(x/2))</tspan>
   </text>
   <text transform="translate(280.069,416.342) rotate(-0,-0,-4)" xml:space="preserve" font-family="FreeSans" font-weight="normal" font-style="normal" font-size="9">
    <tspan fill="rgb(0,0,0)" x="0 4 8 12 17 20 25 30 32 35 37 41 45 49 54 57 62 64 69 71 " y="-0">x**5/24 - x**3/6 + x</tspan>
   </text>
   <polyline stroke-width="0.5" fill="none" stroke-linecap="butt" stroke-linejoin="round" stroke="#000000" points="238.948,392.28 274.534,392.28"/>
   <polyline stroke-width="0.5" stroke-dasharray="4,4,4,4" fill="none" stroke-linecap="butt" stroke-linejoin="round" stroke="#ff0000" points="238.948,412.342 274.534,412.342"/>
  </g>
 </g>
</svg>
