<?xml version='1.0' encoding='UTF-8' standalone='no'?>
<svg width="576pt" height="432pt" xmlns:xlink="http://www.w3.org/1999/xlink" viewBox="0 0 576 432" xmlns="http://www.w3.org/2000/svg">
 <title>Taylor Series for arcsec(sqrt(2)e^x)</title>
 <desc>
@author: Oscar Veliz
Creator: GL2PS 1.4.0, (C) 1999-2017 C. Geuzaine
For: Octave
CreationDate: Thu Feb 20 13:43:58 2020
</desc>
 <defs/>
 <polygon fill="none" points="0,0 576,0 576,432 0,432"/>
 <g>
  <polygon fill="none" shape-rendering="crispEdges" points="0,432 576,432 576,0 0,0"/>
  <clipPath id="cp00576432">
   <polygon points="0,432 576,432 576,0 0,0"/>
  </clipPath>
  <g clip-path="url(#cp00576432)">
   <polygon fill="none" shape-rendering="crispEdges" points="74.88,343.917 521.28,343.917 521.28,31.9608 74.88,31.9608"/>
   <polyline stroke="#262626" fill="none" stroke-width="0.5" stroke-linecap="butt" points="149.28,343.917 149.28,339.454" stroke-linejoin="miter"/>
   <polyline stroke="#262626" fill="none" stroke-width="0.5" stroke-linecap="butt" points="149.28,31.9608 149.28,36.4242" stroke-linejoin="miter"/>
   <polyline stroke="#262626" fill="none" stroke-width="0.5" stroke-linecap="butt" points="223.68,343.917 223.68,339.454" stroke-linejoin="miter"/>
   <polyline stroke="#262626" fill="none" stroke-width="0.5" stroke-linecap="butt" points="223.68,31.9608 223.68,36.4242" stroke-linejoin="miter"/>
   <polyline stroke="#262626" fill="none" stroke-width="0.5" stroke-linecap="butt" points="298.08,343.917 298.08,339.454" stroke-linejoin="miter"/>
   <polyline stroke="#262626" fill="none" stroke-width="0.5" stroke-linecap="butt" points="298.08,31.9608 298.08,36.4242" stroke-linejoin="miter"/>
   <polyline stroke="#262626" fill="none" stroke-width="0.5" stroke-linecap="butt" points="372.48,343.917 372.48,339.454" stroke-linejoin="miter"/>
   <polyline stroke="#262626" fill="none" stroke-width="0.5" stroke-linecap="butt" points="372.48,31.9608 372.48,36.4242" stroke-linejoin="miter"/>
   <polyline stroke="#262626" fill="none" stroke-width="0.5" stroke-linecap="butt" points="446.88,343.917 446.88,339.454" stroke-linejoin="miter"/>
   <polyline stroke="#262626" fill="none" stroke-width="0.5" stroke-linecap="butt" points="446.88,31.9608 446.88,36.4242" stroke-linejoin="miter"/>
   <text xml:space="preserve" font-style="normal" transform="translate(140.28,359.416) rotate(-0,9,-8)" font-weight="normal" font-family="FreeSans" font-size="10">
    <tspan y="-0" fill="rgb(38,38,38)" x="0 3 9 12 ">-0.2</tspan>
   </text>
   <text xml:space="preserve" font-style="normal" transform="translate(214.68,359.416) rotate(-0,9,-8)" font-weight="normal" font-family="FreeSans" font-size="10">
    <tspan y="-0" fill="rgb(38,38,38)" x="0 3 9 12 ">-0.1</tspan>
   </text>
   <text xml:space="preserve" font-style="normal" transform="translate(295.08,359.416) rotate(-0,3,-8)" font-weight="normal" font-family="FreeSans" font-size="10">
    <tspan y="-0" fill="rgb(38,38,38)" x="0 ">0</tspan>
   </text>
   <text xml:space="preserve" font-style="normal" transform="translate(364.98,359.416) rotate(-0,7.5,-8)" font-weight="normal" font-family="FreeSans" font-size="10">
    <tspan y="-0" fill="rgb(38,38,38)" x="0 6 9 ">0.1</tspan>
   </text>
   <text xml:space="preserve" font-style="normal" transform="translate(439.38,359.416) rotate(-0,7.5,-8)" font-weight="normal" font-family="FreeSans" font-size="10">
    <tspan y="-0" fill="rgb(38,38,38)" x="0 6 9 ">0.2</tspan>
   </text>
   <polyline stroke="#262626" fill="none" stroke-width="0.5" stroke-linecap="butt" points="74.88,343.917 79.348,343.917" stroke-linejoin="miter"/>
   <polyline stroke="#262626" fill="none" stroke-width="0.5" stroke-linecap="butt" points="521.28,343.917 516.812,343.917" stroke-linejoin="miter"/>
   <polyline stroke="#262626" fill="none" stroke-width="0.5" stroke-linecap="butt" points="74.88,302.323 79.348,302.323" stroke-linejoin="miter"/>
   <polyline stroke="#262626" fill="none" stroke-width="0.5" stroke-linecap="butt" points="521.28,302.323 516.812,302.323" stroke-linejoin="miter"/>
   <polyline stroke="#262626" fill="none" stroke-width="0.5" stroke-linecap="butt" points="74.88,260.729 79.348,260.729" stroke-linejoin="miter"/>
   <polyline stroke="#262626" fill="none" stroke-width="0.5" stroke-linecap="butt" points="521.28,260.729 516.812,260.729" stroke-linejoin="miter"/>
   <polyline stroke="#262626" fill="none" stroke-width="0.5" stroke-linecap="butt" points="74.88,219.135 79.348,219.135" stroke-linejoin="miter"/>
   <polyline stroke="#262626" fill="none" stroke-width="0.5" stroke-linecap="butt" points="521.28,219.135 516.812,219.135" stroke-linejoin="miter"/>
   <polyline stroke="#262626" fill="none" stroke-width="0.5" stroke-linecap="butt" points="74.88,177.54 79.348,177.54" stroke-linejoin="miter"/>
   <polyline stroke="#262626" fill="none" stroke-width="0.5" stroke-linecap="butt" points="521.28,177.54 516.812,177.54" stroke-linejoin="miter"/>
   <polyline stroke="#262626" fill="none" stroke-width="0.5" stroke-linecap="butt" points="74.88,135.946 79.348,135.946" stroke-linejoin="miter"/>
   <polyline stroke="#262626" fill="none" stroke-width="0.5" stroke-linecap="butt" points="521.28,135.946 516.812,135.946" stroke-linejoin="miter"/>
   <polyline stroke="#262626" fill="none" stroke-width="0.5" stroke-linecap="butt" points="74.88,94.3521 79.348,94.3521" stroke-linejoin="miter"/>
   <polyline stroke="#262626" fill="none" stroke-width="0.5" stroke-linecap="butt" points="521.28,94.3521 516.812,94.3521" stroke-linejoin="miter"/>
   <polyline stroke="#262626" fill="none" stroke-width="0.5" stroke-linecap="butt" points="74.88,52.7579 79.348,52.7579" stroke-linejoin="miter"/>
   <polyline stroke="#262626" fill="none" stroke-width="0.5" stroke-linecap="butt" points="521.28,52.7579 516.812,52.7579" stroke-linejoin="miter"/>
   <text xml:space="preserve" font-style="normal" transform="translate(63.8755,347.917) rotate(-0,6,-4)" font-weight="normal" font-family="FreeSans" font-size="10">
    <tspan y="-0" fill="rgb(38,38,38)" x="0 ">0</tspan>
   </text>
   <text xml:space="preserve" font-style="normal" transform="translate(54.8755,306.323) rotate(-0,15,-4)" font-weight="normal" font-family="FreeSans" font-size="10">
    <tspan y="-0" fill="rgb(38,38,38)" x="0 6 9 ">0.2</tspan>
   </text>
   <text xml:space="preserve" font-style="normal" transform="translate(54.8755,264.729) rotate(-0,15,-4)" font-weight="normal" font-family="FreeSans" font-size="10">
    <tspan y="-0" fill="rgb(38,38,38)" x="0 6 9 ">0.4</tspan>
   </text>
   <text xml:space="preserve" font-style="normal" transform="translate(54.8755,223.135) rotate(-0,15,-4)" font-weight="normal" font-family="FreeSans" font-size="10">
    <tspan y="-0" fill="rgb(38,38,38)" x="0 6 9 ">0.6</tspan>
   </text>
   <text xml:space="preserve" font-style="normal" transform="translate(54.8755,181.54) rotate(-0,15,-4)" font-weight="normal" font-family="FreeSans" font-size="10">
    <tspan y="-0" fill="rgb(38,38,38)" x="0 6 9 ">0.8</tspan>
   </text>
   <text xml:space="preserve" font-style="normal" transform="translate(63.8755,139.946) rotate(-0,6,-4)" font-weight="normal" font-family="FreeSans" font-size="10">
    <tspan y="-0" fill="rgb(38,38,38)" x="0 ">1</tspan>
   </text>
   <text xml:space="preserve" font-style="normal" transform="translate(54.8755,98.3521) rotate(-0,15,-4)" font-weight="normal" font-family="FreeSans" font-size="10">
    <tspan y="-0" fill="rgb(38,38,38)" x="0 6 9 ">1.2</tspan>
   </text>
   <text xml:space="preserve" font-style="normal" transform="translate(54.8755,56.7579) rotate(-0,15,-4)" font-weight="normal" font-family="FreeSans" font-size="10">
    <tspan y="-0" fill="rgb(38,38,38)" x="0 6 9 ">1.4</tspan>
   </text>
   <polyline stroke="#262626" fill="none" stroke-width="0.5" stroke-linecap="square" points="74.88,343.917 521.28,343.917" stroke-dasharray="16,0" stroke-linejoin="miter"/>
   <polyline stroke="#262626" fill="none" stroke-width="0.5" stroke-linecap="square" points="74.88,31.9608 521.28,31.9608" stroke-dasharray="16,0" stroke-linejoin="miter"/>
   <polyline stroke="#262626" fill="none" stroke-width="0.5" stroke-linecap="square" points="74.88,343.917 74.88,31.9608" stroke-dasharray="16,0" stroke-linejoin="miter"/>
   <polyline stroke="#262626" fill="none" stroke-width="0.5" stroke-linecap="square" points="521.28,343.917 521.28,31.9608" stroke-dasharray="16,0" stroke-linejoin="miter"/>
   <text xml:space="preserve" font-style="normal" transform="translate(242.58,21.9608) rotate(-0,55.5,0)" font-weight="bold" font-family="FreeSans" font-size="11">
    <tspan y="-3" fill="rgb(0,0,0)" x="0 7 13 19 22 29 33 36 43 49 53 56 62 68 71 78 84 90 93 99 105 ">Taylor Series n=5 a=0</tspan>
   </text>
   <text xml:space="preserve" font-style="normal" transform="translate(47.3755,187.939) rotate(-90,2.5,0)" font-weight="normal" font-family="FreeSans" font-size="11">
    <tspan y="-2" fill="rgb(38,38,38)" x="0 ">y</tspan>
   </text>
   <text xml:space="preserve" font-style="normal" transform="translate(295.58,371.416) rotate(-0,2.5,-7)" font-weight="normal" font-family="FreeSans" font-size="11">
    <tspan y="-0" fill="rgb(38,38,38)" x="0 ">x</tspan>
   </text>
   <polyline stroke="#000000" fill="none" stroke-width="0.5" stroke-linecap="butt" points="74.88,280.936 75.3268,280.538 75.7737,280.142 76.2205,279.749 76.6674,279.358 77.1142,278.97 77.5611,278.584 78.0079,278.201 78.4548,277.82 78.9016,277.441 79.3485,277.065 79.7953,276.691 80.2421,276.32 80.689,275.95 81.1358,275.583 81.5827,275.217 82.0295,274.854 82.4764,274.493 82.9232,274.134 83.3701,273.776 83.8169,273.421 84.2638,273.068 84.7106,272.716 85.1575,272.367 85.6043,272.019 86.0512,271.673 86.498,271.329 86.9449,270.987 87.3917,270.646 87.8386,270.307 88.2854,269.97 88.7323,269.635 89.1791,269.301 89.6259,268.969 90.0728,268.638 90.5196,268.309 90.9665,267.981 91.4133,267.655 91.8602,267.331 92.307,267.008 92.7539,266.686 93.2007,266.366 93.6476,266.048 94.0944,265.731 94.5413,265.415 94.9881,265.1 95.435,264.787 95.8818,264.476 96.3286,264.166 96.7755,263.857 97.2223,263.549 97.6692,263.243 98.116,262.938 98.5629,262.634 99.0097,262.331 99.4566,262.03 99.9034,261.73 100.35,261.431 100.797,261.134 101.244,260.837 101.691,260.542 102.138,260.248 102.585,259.955 103.031,259.663 103.478,259.372 103.925,259.083 104.372,258.794 104.819,258.507 105.266,258.22 105.712,257.935 106.159,257.651 106.606,257.368 107.053,257.086 107.5,256.805 107.947,256.525 108.394,256.246 108.84,255.968 109.287,255.691 109.734,255.414 110.181,255.139 110.628,254.865 111.075,254.592 111.521,254.32 111.968,254.049 112.415,253.778 112.862,253.509 113.309,253.24 113.756,252.973 114.203,252.706 114.649,252.44 115.096,252.175 115.543,251.911 115.99,251.648 116.437,251.385 116.884,251.124 117.33,250.863 117.777,250.603 118.224,250.344 118.671,250.086 119.118,249.828 119.565,249.572 120.012,249.316 120.458,249.061 120.905,248.807 121.352,248.553 121.799,248.301 122.246,248.049 122.693,247.798 123.139,247.547 123.586,247.298 124.033,247.049 124.48,246.801 124.927,246.553 125.374,246.307 125.821,246.061 126.267,245.816 126.714,245.571 127.161,245.327 127.608,245.084 128.055,244.842 128.502,244.6 128.948,244.359 129.395,244.119 129.842,243.879 130.289,243.64 130.736,243.402 131.183,243.164 131.63,242.927 132.076,242.691 132.523,242.455 132.97,242.22 133.417,241.986 133.864,241.752 134.311,241.519 134.757,241.286 135.204,241.054 135.651,240.823 136.098,240.592 136.545,240.362 136.992,240.133 137.439,239.904 137.885,239.676 138.332,239.448 138.779,239.221 139.226,238.994 139.673,238.768 140.12,238.543 140.566,238.318 141.013,238.094 141.46,237.87 141.907,237.647 142.354,237.425 142.801,237.203 143.248,236.981 143.694,236.761 144.141,236.54 144.588,236.32 145.035,236.101 145.482,235.883 145.929,235.664 146.376,235.447 146.822,235.23 147.269,235.013 147.716,234.797 148.163,234.582 148.61,234.366 149.057,234.152 149.503,233.938 149.95,233.724 150.397,233.511 150.844,233.299 151.291,233.087 151.738,232.875 152.185,232.664 152.631,232.454 153.078,232.244 153.525,232.034 153.972,231.825 154.419,231.616 154.866,231.408 155.312,231.201 155.759,230.993 156.206,230.787 156.653,230.58 157.1,230.375 157.547,230.169 157.994,229.964 158.44,229.76 158.887,229.556 159.334,229.352 159.781,229.149 160.228,228.947 160.675,228.744 161.121,228.542 161.568,228.341 162.015,228.14 162.462,227.94 162.909,227.74 163.356,227.54 163.803,227.341 164.249,227.142 164.696,226.944 165.143,226.746 165.59,226.548 166.037,226.351 166.484,226.154 166.93,225.958 167.377,225.762 167.824,225.567 168.271,225.372 168.718,225.177 169.165,224.983 169.612,224.789 170.058,224.595 170.505,224.402 170.952,224.21 171.399,224.017 171.846,223.825 172.293,223.634 172.739,223.443 173.186,223.252 173.633,223.062 174.08,222.872 174.527,222.682 174.974,222.493 175.421,222.304 175.867,222.115 176.314,221.927 176.761,221.74 177.208,221.552 177.655,221.365 178.102,221.178 178.548,220.992 178.995,220.806 179.442,220.621 179.889,220.435 180.336,220.251 180.783,220.066 181.23,219.882 181.676,219.698 182.123,219.515 182.57,219.331 183.017,219.149 183.464,218.966 183.911,218.784 184.357,218.602 184.804,218.421 185.251,218.24 185.698,218.059 186.145,217.879 186.592,217.699 187.039,217.519 187.485,217.34 187.932,217.161 188.379,216.982 188.826,216.803 189.273,216.625 189.72,216.448 190.166,216.27 190.613,216.093 191.06,215.916 191.507,215.74 191.954,215.563 192.401,215.388 192.848,215.212 193.294,215.037 193.741,214.862 194.188,214.687 194.635,214.513 195.082,214.339 195.529,214.165 195.975,213.992 196.422,213.819 196.869,213.646 197.316,213.474 197.763,213.301 198.21,213.13 198.657,212.958 199.103,212.787 199.55,212.616 199.997,212.445 200.444,212.275 200.891,212.105 201.338,211.935 201.785,211.765 202.231,211.596 202.678,211.427 203.125,211.258 203.572,211.09 204.019,210.922 204.466,210.754 204.912,210.587 205.359,210.419 205.806,210.253 206.253,210.086 206.7,209.919 207.147,209.753 207.594,209.587 208.04,209.422 208.487,209.257 208.934,209.092 209.381,208.927 209.828,208.762 210.275,208.598 210.721,208.434 211.168,208.27 211.615,208.107 212.062,207.944 212.509,207.781 212.956,207.618 213.403,207.456 213.849,207.294 214.296,207.132 214.743,206.971 215.19,206.809 215.637,206.648 216.084,206.487 216.53,206.327 216.977,206.167 217.424,206.007 217.871,205.847 218.318,205.687 218.765,205.528 219.212,205.369 219.658,205.21 220.105,205.052 220.552,204.893 220.999,204.735 221.446,204.577 221.893,204.42 222.339,204.263 222.786,204.106 223.233,203.949 223.68,203.792 224.127,203.636 224.574,203.48 225.021,203.324 225.467,203.168 225.914,203.013 226.361,202.858 226.808,202.703 227.255,202.548 227.702,202.394 228.148,202.24 228.595,202.086 229.042,201.932 229.489,201.779 229.936,201.625 230.383,201.472 230.83,201.319 231.276,201.167 231.723,201.015 232.17,200.862 232.617,200.711 233.064,200.559 233.511,200.407 233.957,200.256 234.404,200.105 234.851,199.954 235.298,199.804 235.745,199.654 236.192,199.503 236.639,199.354 237.085,199.204 237.532,199.054 237.979,198.905 238.426,198.756 238.873,198.607 239.32,198.459 239.766,198.311 240.213,198.162 240.66,198.014 241.107,197.867 241.554,197.719 242.001,197.572 242.448,197.425 242.894,197.278 243.341,197.131 243.788,196.985 244.235,196.839 244.682,196.693 245.129,196.547 245.575,196.401 246.022,196.256 246.469,196.11 246.916,195.965 247.363,195.821 247.81,195.676 248.257,195.532 248.703,195.387 249.15,195.243 249.597,195.1 250.044,194.956 250.491,194.813 250.938,194.669 251.385,194.526 251.831,194.384 252.278,194.241 252.725,194.099 253.172,193.956 253.619,193.814 254.066,193.673 254.512,193.531 254.959,193.39 255.406,193.248 255.853,193.107 256.3,192.966 256.747,192.826 257.194,192.685 257.64,192.545 258.087,192.405 258.534,192.265 258.981,192.125 259.428,191.986 259.875,191.847 260.321,191.707 260.768,191.568 261.215,191.43 261.662,191.291 262.109,191.153 262.556,191.014 263.003,190.876 263.449,190.739 263.896,190.601 264.343,190.463 264.79,190.326 265.237,190.189 265.684,190.052 266.13,189.915 266.577,189.779 267.024,189.642 267.471,189.506 267.918,189.37 268.365,189.234 268.812,189.099 269.258,188.963 269.705,188.828 270.152,188.693 270.599,188.558 271.046,188.423 271.493,188.288 271.939,188.154 272.386,188.02 272.833,187.885 273.28,187.752 273.727,187.618 274.174,187.484 274.621,187.351 275.067,187.218 275.514,187.085 275.961,186.952 276.408,186.819 276.855,186.686 277.302,186.554 277.748,186.422 278.195,186.29 278.642,186.158 279.089,186.026 279.536,185.895 279.983,185.763 280.43,185.632 280.876,185.501 281.323,185.37 281.77,185.239 282.217,185.109 282.664,184.978 283.111,184.848 283.557,184.718 284.004,184.588 284.451,184.458 284.898,184.329 285.345,184.199 285.792,184.07 286.239,183.941 286.685,183.812 287.132,183.683 287.579,183.555 288.026,183.426 288.473,183.298 288.92,183.17 289.366,183.042 289.813,182.914 290.26,182.786 290.707,182.659 291.154,182.532 291.601,182.404 292.048,182.277 292.494,182.15 292.941,182.024 293.388,181.897 293.835,181.771 294.282,181.644 294.729,181.518 295.175,181.392 295.622,181.266 296.069,181.141 296.516,181.015 296.963,180.89 297.41,180.765 297.857,180.64 298.303,180.515 298.75,180.39 299.197,180.265 299.644,180.141 300.091,180.017 300.538,179.892 300.984,179.768 301.431,179.645 301.878,179.521 302.325,179.397 302.772,179.274 303.219,179.151 303.666,179.027 304.112,178.904 304.559,178.782 305.006,178.659 305.453,178.536 305.9,178.414 306.347,178.292 306.794,178.17 307.24,178.048 307.687,177.926 308.134,177.804 308.581,177.683 309.028,177.561 309.475,177.44 309.921,177.319 310.368,177.198 310.815,177.077 311.262,176.956 311.709,176.836 312.156,176.715 312.603,176.595 313.049,176.475 313.496,176.355 313.943,176.235 314.39,176.115 314.837,175.996 315.284,175.876 315.73,175.757 316.177,175.638 316.624,175.519 317.071,175.4 317.518,175.281 317.965,175.162 318.412,175.044 318.858,174.925 319.305,174.807 319.752,174.689 320.199,174.571 320.646,174.453 321.093,174.336 321.539,174.218 321.986,174.101 322.433,173.983 322.88,173.866 323.327,173.749 323.774,173.632 324.221,173.516 324.667,173.399 325.114,173.282 325.561,173.166 326.008,173.05 326.455,172.934 326.902,172.818 327.348,172.702 327.795,172.586 328.242,172.47 328.689,172.355 329.136,172.24 329.583,172.124 330.03,172.009 330.476,171.894 330.923,171.78 331.37,171.665 331.817,171.55 332.264,171.436 332.711,171.322 333.157,171.207 333.604,171.093 334.051,170.979 334.498,170.866 334.945,170.752 335.392,170.638 335.839,170.525 336.285,170.412 336.732,170.298 337.179,170.185 337.626,170.072 338.073,169.96 338.52,169.847 338.966,169.734 339.413,169.622 339.86,169.509 340.307,169.397 340.754,169.285 341.201,169.173 341.648,169.061 342.094,168.95 342.541,168.838 342.988,168.727 343.435,168.615 343.882,168.504 344.329,168.393 344.775,168.282 345.222,168.171 345.669,168.06 346.116,167.949 346.563,167.839 347.01,167.729 347.457,167.618 347.903,167.508 348.35,167.398 348.797,167.288 349.244,167.178 349.691,167.068 350.138,166.959 350.585,166.849 351.031,166.74 351.478,166.631 351.925,166.522 352.372,166.413 352.819,166.304 353.266,166.195 353.712,166.086 354.159,165.978 354.606,165.869 355.053,165.761 355.5,165.653 355.947,165.545 356.393,165.437 356.84,165.329 357.287,165.221 357.734,165.113 358.181,165.006 358.628,164.898 359.075,164.791 359.521,164.684 359.968,164.577 360.415,164.47 360.862,164.363 361.309,164.256 361.756,164.15 362.203,164.043 362.649,163.937 363.096,163.83 363.543,163.724 363.99,163.618 364.437,163.512 364.884,163.406 365.33,163.301 365.777,163.195 366.224,163.089 366.671,162.984 367.118,162.879 367.565,162.773 368.012,162.668 368.458,162.563 368.905,162.458 369.352,162.354 369.799,162.249 370.246,162.144 370.693,162.04 371.139,161.935 371.586,161.831 372.033,161.727 372.48,161.623 372.927,161.519 373.374,161.415 373.821,161.312 374.267,161.208 374.714,161.104 375.161,161.001 375.608,160.898 376.055,160.795 376.502,160.691 376.948,160.588 377.395,160.486 377.842,160.383 378.289,160.28 378.736,160.177 379.183,160.075 379.63,159.973 380.076,159.87 380.523,159.768 380.97,159.666 381.417,159.564 381.864,159.462 382.311,159.361 382.757,159.259 383.204,159.157 383.651,159.056 384.098,158.955 384.545,158.853 384.992,158.752 385.439,158.651 385.885,158.55 386.332,158.449 386.779,158.349 387.226,158.248 387.673,158.147 388.12,158.047 388.566,157.947 389.013,157.846 389.46,157.746 389.907,157.646 390.354,157.546 390.801,157.446 391.248,157.346 391.694,157.247 392.141,157.147 392.588,157.048 393.035,156.948 393.482,156.849 393.929,156.75 394.375,156.651 394.822,156.552 395.269,156.453 395.716,156.354 396.163,156.256 396.61,156.157 397.057,156.058 397.503,155.96 397.95,155.862 398.397,155.764 398.844,155.665 399.291,155.567 399.738,155.469 400.185,155.372 400.631,155.274 401.078,155.176 401.525,155.079 401.972,154.981 402.419,154.884 402.866,154.787 403.312,154.689 403.759,154.592 404.206,154.495 404.653,154.398 405.1,154.302 405.547,154.205 405.993,154.108 406.44,154.012 406.887,153.915 407.334,153.819 407.781,153.723 408.228,153.627 408.675,153.531 409.121,153.435 409.568,153.339 410.015,153.243 410.462,153.147 410.909,153.052 411.356,152.956 411.802,152.861 412.249,152.765 412.696,152.67 413.143,152.575 413.59,152.48 414.037,152.385 414.484,152.29 414.93,152.195 415.377,152.101 415.824,152.006 416.271,151.911 416.718,151.817 417.165,151.723 417.612,151.628 418.058,151.534 418.505,151.44 418.952,151.346 419.399,151.252 419.846,151.159 420.293,151.065 420.739,150.971 421.186,150.878 421.633,150.784 422.08,150.691 422.527,150.598 422.974,150.504 423.421,150.411 423.867,150.318 424.314,150.225 424.761,150.132 425.208,150.04 425.655,149.947 426.102,149.854 426.548,149.762 426.995,149.669 427.442,149.577 427.889,149.485 428.336,149.393 428.783,149.301 429.23,149.209 429.676,149.117 430.123,149.025 430.57,148.933 431.017,148.842 431.464,148.75 431.911,148.658 432.357,148.567 432.804,148.476 433.251,148.385 433.698,148.293 434.145,148.202 434.592,148.111 435.039,148.02 435.485,147.93 435.932,147.839 436.379,147.748 436.826,147.658 437.273,147.567 437.72,147.477 438.166,147.387 438.613,147.296 439.06,147.206 439.507,147.116 439.954,147.026 440.401,146.936 440.848,146.846 441.294,146.757 441.741,146.667 442.188,146.577 442.635,146.488 443.082,146.398 443.529,146.309 443.975,146.22 444.422,146.131 444.869,146.042 445.316,145.953 445.763,145.864 446.21,145.775 446.657,145.686 447.103,145.597 447.55,145.509 447.997,145.42 448.444,145.332 448.891,145.243 449.338,145.155 449.784,145.067 450.231,144.979 450.678,144.891 451.125,144.803 451.572,144.715 452.019,144.627 452.466,144.539 452.912,144.452 453.359,144.364 453.806,144.277 454.253,144.189 454.7,144.102 455.147,144.015 455.594,143.927 456.04,143.84 456.487,143.753 456.934,143.666 457.381,143.579 457.828,143.493 458.275,143.406 458.721,143.319 459.168,143.233 459.615,143.146 460.062,143.06 460.509,142.974 460.956,142.887 461.402,142.801 461.849,142.715 462.296,142.629 462.743,142.543 463.19,142.457 463.637,142.371 464.084,142.286 464.53,142.2 464.977,142.114 465.424,142.029 465.871,141.943 466.318,141.858 466.765,141.773 467.212,141.688 467.658,141.603 468.105,141.517 468.552,141.432 468.999,141.348 469.446,141.263 469.893,141.178 470.339,141.093 470.786,141.009 471.233,140.924 471.68,140.84 472.127,140.755 472.574,140.671 473.021,140.587 473.467,140.503 473.914,140.419 474.361,140.335 474.808,140.251 475.255,140.167 475.702,140.083 476.148,139.999 476.595,139.916 477.042,139.832 477.489,139.749 477.936,139.665 478.383,139.582 478.83,139.498 479.276,139.415 479.723,139.332 480.17,139.249 480.617,139.166 481.064,139.083 481.511,139 481.957,138.917 482.404,138.835 482.851,138.752 483.298,138.67 483.745,138.587 484.192,138.505 484.639,138.422 485.085,138.34 485.532,138.258 485.979,138.176 486.426,138.094 486.873,138.012 487.32,137.93 487.766,137.848 488.213,137.766 488.66,137.684 489.107,137.603 489.554,137.521 490.001,137.44 490.448,137.358 490.894,137.277 491.341,137.195 491.788,137.114 492.235,137.033 492.682,136.952 493.129,136.871 493.575,136.79 494.022,136.709 494.469,136.628 494.916,136.548 495.363,136.467 495.81,136.386 496.257,136.306 496.703,136.225 497.15,136.145 497.597,136.064 498.044,135.984 498.491,135.904 498.938,135.824 499.384,135.744 499.831,135.664 500.278,135.584 500.725,135.504 501.172,135.424 501.619,135.345 502.066,135.265 502.512,135.185 502.959,135.106 503.406,135.026 503.853,134.947 504.3,134.868 504.747,134.788 505.193,134.709 505.64,134.63 506.087,134.551 506.534,134.472 506.981,134.393 507.428,134.314 507.875,134.235 508.321,134.157 508.768,134.078 509.215,133.999 509.662,133.921 510.109,133.842 510.556,133.764 511.003,133.686 511.449,133.607 511.896,133.529 512.343,133.451 512.79,133.373 513.237,133.295 513.684,133.217 514.13,133.139 514.577,133.061 515.024,132.984 515.471,132.906 515.918,132.828 516.365,132.751 516.812,132.673 517.258,132.596 517.705,132.519 518.152,132.441 518.599,132.364 519.046,132.287 519.493,132.21 519.939,132.133 520.386,132.056 520.833,131.979 521.28,131.902" stroke-linejoin="round"/>
   <polyline stroke="#ff0000" fill="none" stroke-width="0.5" stroke-linecap="butt" points="74.88,275.461 90.8229,265.195 106.766,255.734 122.709,246.99 138.651,238.882 154.594,231.34 170.537,224.301 186.48,217.707 202.423,211.51 218.366,205.666 234.309,200.136 250.251,194.889 266.194,189.895 282.137,185.132 298.08,180.577 314.023,176.213 329.966,172.025 345.909,168 361.851,164.126 377.794,160.391 393.737,156.785 409.68,153.297 425.623,149.915 441.566,146.627 457.509,143.417 473.451,140.27 489.394,137.166 505.337,134.081 521.28,130.988" stroke-dasharray="4,4,4,4" stroke-linejoin="round"/>
  </g>
  <clipPath id="cp00576432">
   <polygon points="0,432 576,432 576,0 0,0"/>
  </clipPath>
  <g clip-path="url(#cp00576432)">
   <polygon fill="none" shape-rendering="crispEdges" points="162.955,422.373 433.205,422.373 433.205,382.249 162.955,382.249"/>
   <polyline stroke="#262626" fill="none" stroke-width="0.5" stroke-linecap="square" points="162.955,422.373 433.205,422.373" stroke-dasharray="16,0" stroke-linejoin="miter"/>
   <polyline stroke="#262626" fill="none" stroke-width="0.5" stroke-linecap="square" points="162.955,382.249 433.205,382.249" stroke-dasharray="16,0" stroke-linejoin="miter"/>
   <polyline stroke="#262626" fill="none" stroke-width="0.5" stroke-linecap="square" points="162.955,422.373 162.955,382.249" stroke-dasharray="16,0" stroke-linejoin="miter"/>
   <polyline stroke="#262626" fill="none" stroke-width="0.5" stroke-linecap="square" points="433.205,422.373 433.205,382.249" stroke-dasharray="16,0" stroke-linejoin="miter"/>
   <text xml:space="preserve" font-style="normal" transform="translate(209.612,397.28) rotate(-0,-0,-5)" font-weight="normal" font-family="FreeSans" font-size="9">
    <tspan y="-2" fill="rgb(0,0,0)" x="0 5 9 14 19 22 26 31 34 37 40 45 48 52 57 61 66 69 73 76 ">asec(sqrt(2)*exp(x))</tspan>
   </text>
   <text xml:space="preserve" font-style="normal" transform="translate(209.612,416.342) rotate(-0,-0,-4)" font-weight="normal" font-family="FreeSans" font-size="9">
    <tspan y="-0" fill="rgb(0,0,0)" x="0 5 10 14 18 22 26 31 34 39 41 44 46 51 55 59 63 67 72 75 80 82 87 89 94 98 102 106 110 115 118 123 125 128 130 134 138 142 147 149 154 156 160 162 167 169 174 179 184 189 192 197 202 207 ">14*x**5/3 - 7*x**4/3 + 4*x**3/3 - x**2 + x + 3927/5000</tspan>
   </text>
   <polyline stroke="#000000" fill="none" stroke-width="0.5" stroke-linecap="butt" points="168.491,392.28 204.076,392.28" stroke-linejoin="round"/>
   <polyline stroke="#ff0000" fill="none" stroke-width="0.5" stroke-linecap="butt" points="168.491,412.342 204.076,412.342" stroke-dasharray="4,4,4,4" stroke-linejoin="round"/>
  </g>
 </g>
</svg>
