<?xml version='1.0' encoding='UTF-8' standalone='no'?>
<svg xmlns:xlink="http://www.w3.org/1999/xlink" viewBox="0 0 576 432" width="576pt" xmlns="http://www.w3.org/2000/svg" height="432pt">
 <title>Taylor Series for arctan(x)</title>
 <desc>
@author: Oscar Veliz
Creator: GL2PS 1.4.0, (C) 1999-2017 C. Geuzaine
For: Octave
CreationDate: Wed Feb 19 12:28:40 2020
</desc>
 <defs/>
 <polygon points="0,0 576,0 576,432 0,432" fill="none"/>
 <g>
  <polygon points="0,432 576,432 576,0 0,0" fill="none" shape-rendering="crispEdges"/>
  <clipPath id="cp00576432">
   <polygon points="0,432 576,432 576,0 0,0"/>
  </clipPath>
  <g clip-path="url(#cp00576432)">
   <polygon points="74.88,343.917 521.28,343.917 521.28,31.9608 74.88,31.9608" fill="none" shape-rendering="crispEdges"/>
   <polyline points="74.88,343.917 74.88,339.454" stroke-linejoin="miter" stroke-width="0.5" stroke-linecap="butt" fill="none" stroke="#262626"/>
   <polyline points="74.88,31.9608 74.88,36.4242" stroke-linejoin="miter" stroke-width="0.5" stroke-linecap="butt" fill="none" stroke="#262626"/>
   <polyline points="186.48,343.917 186.48,339.454" stroke-linejoin="miter" stroke-width="0.5" stroke-linecap="butt" fill="none" stroke="#262626"/>
   <polyline points="186.48,31.9608 186.48,36.4242" stroke-linejoin="miter" stroke-width="0.5" stroke-linecap="butt" fill="none" stroke="#262626"/>
   <polyline points="298.08,343.917 298.08,339.454" stroke-linejoin="miter" stroke-width="0.5" stroke-linecap="butt" fill="none" stroke="#262626"/>
   <polyline points="298.08,31.9608 298.08,36.4242" stroke-linejoin="miter" stroke-width="0.5" stroke-linecap="butt" fill="none" stroke="#262626"/>
   <polyline points="409.68,343.917 409.68,339.454" stroke-linejoin="miter" stroke-width="0.5" stroke-linecap="butt" fill="none" stroke="#262626"/>
   <polyline points="409.68,31.9608 409.68,36.4242" stroke-linejoin="miter" stroke-width="0.5" stroke-linecap="butt" fill="none" stroke="#262626"/>
   <polyline points="521.28,343.917 521.28,339.454" stroke-linejoin="miter" stroke-width="0.5" stroke-linecap="butt" fill="none" stroke="#262626"/>
   <polyline points="521.28,31.9608 521.28,36.4242" stroke-linejoin="miter" stroke-width="0.5" stroke-linecap="butt" fill="none" stroke="#262626"/>
   <text font-weight="normal" font-size="10" xml:space="preserve" font-style="normal" font-family="FreeSans" transform="translate(70.38,359.416) rotate(-0,4.5,-8)">
    <tspan y="-0" x="0 3 " fill="rgb(38,38,38)">-2</tspan>
   </text>
   <text font-weight="normal" font-size="10" xml:space="preserve" font-style="normal" font-family="FreeSans" transform="translate(181.98,359.416) rotate(-0,4.5,-8)">
    <tspan y="-0" x="0 3 " fill="rgb(38,38,38)">-1</tspan>
   </text>
   <text font-weight="normal" font-size="10" xml:space="preserve" font-style="normal" font-family="FreeSans" transform="translate(295.08,359.416) rotate(-0,3,-8)">
    <tspan y="-0" x="0 " fill="rgb(38,38,38)">0</tspan>
   </text>
   <text font-weight="normal" font-size="10" xml:space="preserve" font-style="normal" font-family="FreeSans" transform="translate(406.68,359.416) rotate(-0,3,-8)">
    <tspan y="-0" x="0 " fill="rgb(38,38,38)">1</tspan>
   </text>
   <text font-weight="normal" font-size="10" xml:space="preserve" font-style="normal" font-family="FreeSans" transform="translate(518.28,359.416) rotate(-0,3,-8)">
    <tspan y="-0" x="0 " fill="rgb(38,38,38)">2</tspan>
   </text>
   <polyline points="74.88,343.917 79.348,343.917" stroke-linejoin="miter" stroke-width="0.5" stroke-linecap="butt" fill="none" stroke="#262626"/>
   <polyline points="521.28,343.917 516.812,343.917" stroke-linejoin="miter" stroke-width="0.5" stroke-linecap="butt" fill="none" stroke="#262626"/>
   <polyline points="74.88,265.928 79.348,265.928" stroke-linejoin="miter" stroke-width="0.5" stroke-linecap="butt" fill="none" stroke="#262626"/>
   <polyline points="521.28,265.928 516.812,265.928" stroke-linejoin="miter" stroke-width="0.5" stroke-linecap="butt" fill="none" stroke="#262626"/>
   <polyline points="74.88,187.939 79.348,187.939" stroke-linejoin="miter" stroke-width="0.5" stroke-linecap="butt" fill="none" stroke="#262626"/>
   <polyline points="521.28,187.939 516.812,187.939" stroke-linejoin="miter" stroke-width="0.5" stroke-linecap="butt" fill="none" stroke="#262626"/>
   <polyline points="74.88,109.95 79.348,109.95" stroke-linejoin="miter" stroke-width="0.5" stroke-linecap="butt" fill="none" stroke="#262626"/>
   <polyline points="521.28,109.95 516.812,109.95" stroke-linejoin="miter" stroke-width="0.5" stroke-linecap="butt" fill="none" stroke="#262626"/>
   <polyline points="74.88,31.9608 79.348,31.9608" stroke-linejoin="miter" stroke-width="0.5" stroke-linecap="butt" fill="none" stroke="#262626"/>
   <polyline points="521.28,31.9608 516.812,31.9608" stroke-linejoin="miter" stroke-width="0.5" stroke-linecap="butt" fill="none" stroke="#262626"/>
   <text font-weight="normal" font-size="10" xml:space="preserve" font-style="normal" font-family="FreeSans" transform="translate(60.8755,347.917) rotate(-0,9,-4)">
    <tspan y="-0" x="0 3 " fill="rgb(38,38,38)">-2</tspan>
   </text>
   <text font-weight="normal" font-size="10" xml:space="preserve" font-style="normal" font-family="FreeSans" transform="translate(60.8755,269.928) rotate(-0,9,-4)">
    <tspan y="-0" x="0 3 " fill="rgb(38,38,38)">-1</tspan>
   </text>
   <text font-weight="normal" font-size="10" xml:space="preserve" font-style="normal" font-family="FreeSans" transform="translate(63.8755,191.939) rotate(-0,6,-4)">
    <tspan y="-0" x="0 " fill="rgb(38,38,38)">0</tspan>
   </text>
   <text font-weight="normal" font-size="10" xml:space="preserve" font-style="normal" font-family="FreeSans" transform="translate(63.8755,113.95) rotate(-0,6,-4)">
    <tspan y="-0" x="0 " fill="rgb(38,38,38)">1</tspan>
   </text>
   <text font-weight="normal" font-size="10" xml:space="preserve" font-style="normal" font-family="FreeSans" transform="translate(63.8755,35.9608) rotate(-0,6,-4)">
    <tspan y="-0" x="0 " fill="rgb(38,38,38)">2</tspan>
   </text>
   <polyline stroke-dasharray="16,0" points="74.88,343.917 521.28,343.917" stroke-linejoin="miter" stroke-width="0.5" stroke-linecap="square" fill="none" stroke="#262626"/>
   <polyline stroke-dasharray="16,0" points="74.88,31.9608 521.28,31.9608" stroke-linejoin="miter" stroke-width="0.5" stroke-linecap="square" fill="none" stroke="#262626"/>
   <polyline stroke-dasharray="16,0" points="74.88,343.917 74.88,31.9608" stroke-linejoin="miter" stroke-width="0.5" stroke-linecap="square" fill="none" stroke="#262626"/>
   <polyline stroke-dasharray="16,0" points="521.28,343.917 521.28,31.9608" stroke-linejoin="miter" stroke-width="0.5" stroke-linecap="square" fill="none" stroke="#262626"/>
   <text font-weight="bold" font-size="11" xml:space="preserve" font-style="normal" font-family="FreeSans" transform="translate(242.58,21.9608) rotate(-0,55.5,0)">
    <tspan y="-3" x="0 7 13 19 22 29 33 36 43 49 53 56 62 68 71 78 84 90 93 99 105 " fill="rgb(0,0,0)">Taylor Series n=9 a=0</tspan>
   </text>
   <text font-weight="normal" font-size="11" xml:space="preserve" font-style="normal" font-family="FreeSans" transform="translate(53.3755,187.939) rotate(-90,2.5,0)">
    <tspan y="-2" x="0 " fill="rgb(38,38,38)">y</tspan>
   </text>
   <text font-weight="normal" font-size="11" xml:space="preserve" font-style="normal" font-family="FreeSans" transform="translate(295.58,371.416) rotate(-0,2.5,-7)">
    <tspan y="-0" x="0 " fill="rgb(38,38,38)">x</tspan>
   </text>
   <polyline points="74.88,274.285 75.3269,274.222 75.7737,274.159 76.2205,274.096 76.6674,274.033 77.1142,273.97 77.5611,273.906 78.0079,273.842 78.4548,273.778 78.9016,273.714 79.3485,273.65 79.7953,273.585 80.2421,273.52 80.689,273.455 81.1358,273.39 81.5827,273.325 82.0295,273.259 82.4764,273.193 82.9232,273.127 83.3701,273.061 83.8169,272.994 84.2638,272.927 84.7106,272.861 85.1575,272.793 85.6043,272.726 86.0512,272.658 86.498,272.59 86.9449,272.522 87.3917,272.454 87.8386,272.385 88.2854,272.317 88.7322,272.248 89.1791,272.179 89.6259,272.109 90.0728,272.039 90.5196,271.97 90.9665,271.899 91.4133,271.829 91.8602,271.758 92.307,271.688 92.7539,271.616 93.2007,271.545 93.6476,271.474 94.0944,271.402 94.5413,271.33 94.9881,271.257 95.435,271.185 95.8818,271.112 96.3286,271.039 96.7755,270.966 97.2223,270.892 97.6692,270.818 98.116,270.744 98.5629,270.67 99.0097,270.595 99.4566,270.521 99.9034,270.446 100.35,270.37 100.797,270.295 101.244,270.219 101.691,270.143 102.138,270.066 102.584,269.99 103.031,269.913 103.478,269.836 103.925,269.758 104.372,269.681 104.819,269.603 105.266,269.525 105.712,269.446 106.159,269.367 106.606,269.288 107.053,269.209 107.5,269.129 107.947,269.049 108.394,268.969 108.84,268.889 109.287,268.808 109.734,268.727 110.181,268.646 110.628,268.564 111.075,268.482 111.521,268.4 111.968,268.318 112.415,268.235 112.862,268.152 113.309,268.069 113.756,267.985 114.203,267.901 114.649,267.817 115.096,267.732 115.543,267.648 115.99,267.563 116.437,267.477 116.884,267.391 117.33,267.305 117.777,267.219 118.224,267.132 118.671,267.045 119.118,266.958 119.565,266.871 120.012,266.783 120.458,266.694 120.905,266.606 121.352,266.517 121.799,266.428 122.246,266.338 122.693,266.248 123.139,266.158 123.586,266.068 124.033,265.977 124.48,265.886 124.927,265.794 125.374,265.703 125.821,265.61 126.267,265.518 126.714,265.425 127.161,265.332 127.608,265.238 128.055,265.145 128.502,265.05 128.948,264.956 129.395,264.861 129.842,264.766 130.289,264.67 130.736,264.574 131.183,264.478 131.63,264.381 132.076,264.284 132.523,264.187 132.97,264.089 133.417,263.991 133.864,263.892 134.311,263.794 134.757,263.694 135.204,263.595 135.651,263.495 136.098,263.395 136.545,263.294 136.992,263.193 137.439,263.091 137.885,262.99 138.332,262.887 138.779,262.785 139.226,262.682 139.673,262.578 140.12,262.474 140.566,262.37 141.013,262.266 141.46,262.161 141.907,262.055 142.354,261.95 142.801,261.844 143.248,261.737 143.694,261.63 144.141,261.523 144.588,261.415 145.035,261.307 145.482,261.198 145.929,261.089 146.375,260.98 146.822,260.87 147.269,260.759 147.716,260.649 148.163,260.538 148.61,260.426 149.057,260.314 149.503,260.202 149.95,260.089 150.397,259.976 150.844,259.862 151.291,259.748 151.738,259.633 152.184,259.518 152.631,259.402 153.078,259.287 153.525,259.17 153.972,259.053 154.419,258.936 154.866,258.818 155.312,258.7 155.759,258.581 156.206,258.462 156.653,258.343 157.1,258.223 157.547,258.102 157.994,257.981 158.44,257.86 158.887,257.738 159.334,257.615 159.781,257.492 160.228,257.369 160.675,257.245 161.121,257.121 161.568,256.996 162.015,256.87 162.462,256.745 162.909,256.618 163.356,256.492 163.803,256.364 164.249,256.236 164.696,256.108 165.143,255.979 165.59,255.85 166.037,255.72 166.484,255.59 166.93,255.459 167.377,255.327 167.824,255.195 168.271,255.063 168.718,254.93 169.165,254.796 169.612,254.662 170.058,254.528 170.505,254.393 170.952,254.257 171.399,254.121 171.846,253.984 172.293,253.847 172.739,253.709 173.186,253.571 173.633,253.432 174.08,253.292 174.527,253.152 174.974,253.012 175.421,252.871 175.867,252.729 176.314,252.587 176.761,252.444 177.208,252.3 177.655,252.156 178.102,252.012 178.548,251.867 178.995,251.721 179.442,251.575 179.889,251.428 180.336,251.28 180.783,251.132 181.23,250.984 181.676,250.834 182.123,250.684 182.57,250.534 183.017,250.383 183.464,250.231 183.911,250.079 184.357,249.926 184.804,249.773 185.251,249.618 185.698,249.464 186.145,249.308 186.592,249.152 187.039,248.996 187.485,248.839 187.932,248.681 188.379,248.522 188.826,248.363 189.273,248.203 189.72,248.043 190.166,247.882 190.613,247.72 191.06,247.558 191.507,247.395 191.954,247.231 192.401,247.067 192.848,246.902 193.294,246.736 193.741,246.57 194.188,246.403 194.635,246.235 195.082,246.067 195.529,245.898 195.975,245.728 196.422,245.558 196.869,245.387 197.316,245.215 197.763,245.043 198.21,244.87 198.657,244.696 199.103,244.522 199.55,244.347 199.997,244.171 200.444,243.994 200.891,243.817 201.338,243.639 201.785,243.461 202.231,243.281 202.678,243.101 203.125,242.92 203.572,242.739 204.019,242.557 204.466,242.374 204.912,242.19 205.359,242.006 205.806,241.821 206.253,241.635 206.7,241.448 207.147,241.261 207.594,241.073 208.04,240.884 208.487,240.695 208.934,240.504 209.381,240.313 209.828,240.122 210.275,239.929 210.721,239.736 211.168,239.542 211.615,239.347 212.062,239.152 212.509,238.955 212.956,238.758 213.403,238.56 213.849,238.362 214.296,238.163 214.743,237.962 215.19,237.762 215.637,237.56 216.084,237.358 216.53,237.154 216.977,236.95 217.424,236.746 217.871,236.54 218.318,236.334 218.765,236.127 219.212,235.919 219.658,235.71 220.105,235.501 220.552,235.291 220.999,235.08 221.446,234.868 221.893,234.655 222.339,234.442 222.786,234.228 223.233,234.013 223.68,233.797 224.127,233.58 224.574,233.363 225.021,233.145 225.467,232.926 225.914,232.706 226.361,232.485 226.808,232.264 227.255,232.042 227.702,231.819 228.148,231.595 228.595,231.37 229.042,231.145 229.489,230.919 229.936,230.691 230.383,230.464 230.83,230.235 231.276,230.005 231.723,229.775 232.17,229.544 232.617,229.312 233.064,229.079 233.511,228.846 233.957,228.611 234.404,228.376 234.851,228.14 235.298,227.903 235.745,227.666 236.192,227.427 236.639,227.188 237.085,226.948 237.532,226.707 237.979,226.466 238.426,226.223 238.873,225.98 239.32,225.736 239.766,225.491 240.213,225.245 240.66,224.999 241.107,224.751 241.554,224.503 242.001,224.254 242.448,224.005 242.894,223.754 243.341,223.503 243.788,223.251 244.235,222.998 244.682,222.744 245.129,222.49 245.575,222.234 246.022,221.978 246.469,221.721 246.916,221.464 247.363,221.205 247.81,220.946 248.257,220.686 248.703,220.425 249.15,220.164 249.597,219.902 250.044,219.639 250.491,219.375 250.938,219.11 251.385,218.845 251.831,218.579 252.278,218.312 252.725,218.044 253.172,217.776 253.619,217.507 254.066,217.237 254.512,216.966 254.959,216.695 255.406,216.423 255.853,216.15 256.3,215.876 256.747,215.602 257.194,215.327 257.64,215.052 258.087,214.775 258.534,214.498 258.981,214.22 259.428,213.942 259.875,213.663 260.321,213.383 260.768,213.102 261.215,212.821 261.662,212.539 262.109,212.257 262.556,211.973 263.003,211.69 263.449,211.405 263.896,211.12 264.343,210.834 264.79,210.548 265.237,210.261 265.684,209.973 266.13,209.685 266.577,209.396 267.024,209.106 267.471,208.816 267.918,208.525 268.365,208.234 268.812,207.942 269.258,207.65 269.705,207.357 270.152,207.063 270.599,206.769 271.046,206.474 271.493,206.179 271.939,205.883 272.386,205.587 272.833,205.29 273.28,204.993 273.727,204.695 274.174,204.397 274.621,204.098 275.067,203.799 275.514,203.499 275.961,203.199 276.408,202.898 276.855,202.597 277.302,202.295 277.748,201.993 278.195,201.691 278.642,201.388 279.089,201.084 279.536,200.781 279.983,200.477 280.43,200.172 280.876,199.867 281.323,199.562 281.77,199.257 282.217,198.951 282.664,198.645 283.111,198.338 283.557,198.031 284.004,197.724 284.451,197.416 284.898,197.108 285.345,196.8 285.792,196.492 286.239,196.183 286.685,195.874 287.132,195.565 287.579,195.256 288.026,194.946 288.473,194.636 288.92,194.326 289.366,194.016 289.813,193.705 290.26,193.395 290.707,193.084 291.154,192.773 291.601,192.462 292.048,192.151 292.494,191.839 292.941,191.528 293.388,191.216 293.835,190.904 294.282,190.592 294.729,190.28 295.175,189.968 295.622,189.656 296.069,189.344 296.516,189.032 296.963,188.72 297.41,188.407 297.857,188.095 298.303,187.783 298.75,187.471 299.197,187.158 299.644,186.846 300.091,186.534 300.538,186.222 300.984,185.91 301.431,185.598 301.878,185.286 302.325,184.974 302.772,184.662 303.219,184.35 303.666,184.039 304.112,183.727 304.559,183.416 305.006,183.105 305.453,182.794 305.9,182.483 306.347,182.173 306.794,181.862 307.24,181.552 307.687,181.242 308.134,180.932 308.581,180.622 309.028,180.313 309.475,180.004 309.921,179.695 310.368,179.386 310.815,179.078 311.262,178.77 311.709,178.462 312.156,178.154 312.603,177.847 313.049,177.54 313.496,177.233 313.943,176.927 314.39,176.621 314.837,176.316 315.284,176.011 315.73,175.706 316.177,175.401 316.624,175.097 317.071,174.793 317.518,174.49 317.965,174.187 318.412,173.885 318.858,173.583 319.305,173.281 319.752,172.98 320.199,172.679 320.646,172.379 321.093,172.079 321.539,171.78 321.986,171.481 322.433,171.183 322.88,170.885 323.327,170.588 323.774,170.291 324.221,169.995 324.667,169.699 325.114,169.404 325.561,169.109 326.008,168.815 326.455,168.521 326.902,168.228 327.348,167.936 327.795,167.644 328.242,167.353 328.689,167.062 329.136,166.772 329.583,166.482 330.03,166.193 330.476,165.905 330.923,165.617 331.37,165.33 331.817,165.044 332.264,164.758 332.711,164.473 333.157,164.188 333.604,163.905 334.051,163.621 334.498,163.339 334.945,163.057 335.392,162.776 335.839,162.495 336.285,162.215 336.732,161.936 337.179,161.658 337.626,161.38 338.073,161.103 338.52,160.826 338.966,160.551 339.413,160.276 339.86,160.002 340.307,159.728 340.754,159.455 341.201,159.183 341.648,158.912 342.094,158.641 342.541,158.371 342.988,158.102 343.435,157.834 343.882,157.566 344.329,157.299 344.775,157.033 345.222,156.768 345.669,156.503 346.116,156.239 346.563,155.976 347.01,155.714 347.457,155.453 347.903,155.192 348.35,154.932 348.797,154.673 349.244,154.414 349.691,154.156 350.138,153.9 350.585,153.644 351.031,153.388 351.478,153.134 351.925,152.88 352.372,152.627 352.819,152.375 353.266,152.124 353.712,151.873 354.159,151.624 354.606,151.375 355.053,151.127 355.5,150.879 355.947,150.633 356.393,150.387 356.84,150.142 357.287,149.898 357.734,149.655 358.181,149.412 358.628,149.171 359.075,148.93 359.521,148.69 359.968,148.451 360.415,148.212 360.862,147.974 361.309,147.738 361.756,147.502 362.203,147.267 362.649,147.032 363.096,146.799 363.543,146.566 363.99,146.334 364.437,146.103 364.884,145.873 365.33,145.643 365.777,145.414 366.224,145.187 366.671,144.959 367.118,144.733 367.565,144.508 368.012,144.283 368.458,144.059 368.905,143.836 369.352,143.614 369.799,143.393 370.246,143.172 370.693,142.952 371.139,142.733 371.586,142.515 372.033,142.298 372.48,142.081 372.927,141.865 373.374,141.65 373.821,141.436 374.267,141.223 374.714,141.01 375.161,140.798 375.608,140.587 376.055,140.377 376.502,140.168 376.948,139.959 377.395,139.751 377.842,139.544 378.289,139.338 378.736,139.132 379.183,138.928 379.63,138.724 380.076,138.52 380.523,138.318 380.97,138.116 381.417,137.916 381.864,137.715 382.311,137.516 382.757,137.318 383.204,137.12 383.651,136.923 384.098,136.726 384.545,136.531 384.992,136.336 385.439,136.142 385.885,135.949 386.332,135.756 386.779,135.565 387.226,135.374 387.673,135.183 388.12,134.994 388.566,134.805 389.013,134.617 389.46,134.43 389.907,134.243 390.354,134.057 390.801,133.872 391.248,133.688 391.694,133.504 392.141,133.321 392.588,133.139 393.035,132.958 393.482,132.777 393.929,132.597 394.375,132.417 394.822,132.239 395.269,132.061 395.716,131.884 396.163,131.707 396.61,131.531 397.057,131.356 397.503,131.182 397.95,131.008 398.397,130.835 398.844,130.663 399.291,130.491 399.738,130.32 400.185,130.15 400.631,129.98 401.078,129.811 401.525,129.643 401.972,129.475 402.419,129.308 402.866,129.142 403.312,128.976 403.759,128.811 404.206,128.647 404.653,128.483 405.1,128.32 405.547,128.158 405.993,127.996 406.44,127.835 406.887,127.675 407.334,127.515 407.781,127.356 408.228,127.197 408.675,127.039 409.121,126.882 409.568,126.726 410.015,126.57 410.462,126.414 410.909,126.259 411.356,126.105 411.803,125.952 412.249,125.799 412.696,125.647 413.143,125.495 413.59,125.344 414.037,125.194 414.484,125.044 414.93,124.894 415.377,124.746 415.824,124.598 416.271,124.45 416.718,124.303 417.165,124.157 417.612,124.011 418.058,123.866 418.505,123.722 418.952,123.578 419.399,123.434 419.846,123.291 420.293,123.149 420.739,123.007 421.186,122.866 421.633,122.726 422.08,122.586 422.527,122.446 422.974,122.307 423.421,122.169 423.867,122.031 424.314,121.894 424.761,121.757 425.208,121.621 425.655,121.485 426.102,121.35 426.548,121.216 426.995,121.082 427.442,120.948 427.889,120.815 428.336,120.683 428.783,120.551 429.23,120.419 429.676,120.288 430.123,120.158 430.57,120.028 431.017,119.899 431.464,119.77 431.911,119.642 432.357,119.514 432.804,119.386 433.251,119.26 433.698,119.133 434.145,119.007 434.592,118.882 435.039,118.757 435.485,118.633 435.932,118.509 436.379,118.386 436.826,118.263 437.273,118.14 437.72,118.018 438.166,117.897 438.613,117.776 439.06,117.655 439.507,117.535 439.954,117.416 440.401,117.297 440.848,117.178 441.294,117.06 441.741,116.942 442.188,116.825 442.635,116.708 443.082,116.591 443.529,116.475 443.975,116.36 444.422,116.245 444.869,116.13 445.316,116.016 445.763,115.902 446.21,115.789 446.657,115.676 447.103,115.564 447.55,115.452 447.997,115.34 448.444,115.229 448.891,115.119 449.338,115.008 449.784,114.898 450.231,114.789 450.678,114.68 451.125,114.571 451.572,114.463 452.019,114.355 452.466,114.248 452.912,114.141 453.359,114.034 453.806,113.928 454.253,113.823 454.7,113.717 455.147,113.612 455.594,113.508 456.04,113.403 456.487,113.3 456.934,113.196 457.381,113.093 457.828,112.991 458.275,112.888 458.721,112.787 459.168,112.685 459.615,112.584 460.062,112.483 460.509,112.383 460.956,112.283 461.402,112.184 461.849,112.084 462.296,111.986 462.743,111.887 463.19,111.789 463.637,111.691 464.084,111.594 464.53,111.497 464.977,111.4 465.424,111.304 465.871,111.208 466.318,111.112 466.765,111.017 467.212,110.922 467.658,110.828 468.105,110.733 468.552,110.64 468.999,110.546 469.446,110.453 469.893,110.36 470.339,110.268 470.786,110.175 471.233,110.084 471.68,109.992 472.127,109.901 472.574,109.81 473.021,109.72 473.467,109.629 473.914,109.54 474.361,109.45 474.808,109.361 475.255,109.272 475.702,109.184 476.148,109.095 476.595,109.007 477.042,108.92 477.489,108.833 477.936,108.746 478.383,108.659 478.83,108.573 479.276,108.487 479.723,108.401 480.17,108.315 480.617,108.23 481.064,108.146 481.511,108.061 481.957,107.977 482.404,107.893 482.851,107.809 483.298,107.726 483.745,107.643 484.192,107.56 484.639,107.478 485.085,107.396 485.532,107.314 485.979,107.232 486.426,107.151 486.873,107.07 487.32,106.989 487.766,106.909 488.213,106.829 488.66,106.749 489.107,106.669 489.554,106.59 490.001,106.511 490.448,106.432 490.894,106.353 491.341,106.275 491.788,106.197 492.235,106.12 492.682,106.042 493.129,105.965 493.576,105.888 494.022,105.812 494.469,105.735 494.916,105.659 495.363,105.583 495.81,105.508 496.257,105.432 496.703,105.357 497.15,105.283 497.597,105.208 498.044,105.134 498.491,105.06 498.938,104.986 499.384,104.912 499.831,104.839 500.278,104.766 500.725,104.693 501.172,104.621 501.619,104.548 502.066,104.476 502.512,104.404 502.959,104.333 503.406,104.262 503.853,104.19 504.3,104.12 504.747,104.049 505.193,103.979 505.64,103.908 506.087,103.839 506.534,103.769 506.981,103.699 507.428,103.63 507.875,103.561 508.321,103.492 508.768,103.424 509.215,103.356 509.662,103.288 510.109,103.22 510.556,103.152 511.003,103.085 511.449,103.017 511.896,102.951 512.343,102.884 512.79,102.817 513.237,102.751 513.684,102.685 514.13,102.619 514.577,102.553 515.024,102.488 515.471,102.423 515.918,102.358 516.365,102.293 516.812,102.228 517.258,102.164 517.705,102.1 518.152,102.036 518.599,101.972 519.046,101.908 519.493,101.845 519.939,101.782 520.386,101.719 520.833,101.656 521.28,101.593" stroke-linejoin="round" stroke-width="0.5" stroke-linecap="butt" fill="none" stroke="#000000"/>
   <polyline stroke-dasharray="4,4,4,4" points="146.145,344.229 146.623,341.475 148.616,331.169 150.609,321.931 152.601,313.655 154.594,306.247 156.587,299.618 158.58,293.689 160.573,288.385 162.566,283.641 164.559,279.395 166.551,275.593 168.544,272.185 170.537,269.125 172.53,266.373 174.523,263.892 176.516,261.648 178.509,259.613 180.501,257.758 182.494,256.061 184.487,254.499 186.48,253.054 188.473,251.708 190.466,250.447 192.459,249.257 194.451,248.127 196.444,247.046 198.437,246.004 200.43,244.994 202.423,244.009 204.416,243.043 206.409,242.09 208.401,241.146 210.394,240.206 212.387,239.268 214.38,238.328 216.373,237.385 218.366,236.434 220.359,235.476 222.351,234.508 224.344,233.529 226.337,232.538 228.33,231.534 230.323,230.517 232.316,229.485 234.309,228.439 236.301,227.377 238.294,226.301 240.287,225.209 242.28,224.101 244.273,222.978 246.266,221.84 248.259,220.686 250.251,219.517 252.244,218.332 254.237,217.133 256.23,215.919 258.223,214.691 260.216,213.449 262.209,212.193 264.201,210.925 266.194,209.643 268.187,208.35 270.18,207.045 272.173,205.729 274.166,204.402 276.159,203.066 278.151,201.72 280.144,200.367 282.137,199.005 284.13,197.637 286.123,196.263 288.116,194.884 290.109,193.5 292.101,192.113 294.094,190.723 296.087,189.332 298.08,187.939 300.073,186.546 302.066,185.155 304.059,183.765 306.051,182.378 308.044,180.994 310.037,179.615 312.03,178.241 314.023,176.873 316.016,175.511 318.009,174.158 320.001,172.812 321.994,171.476 323.987,170.149 325.98,168.833 327.973,167.528 329.966,166.235 331.959,164.953 333.951,163.684 335.944,162.429 337.937,161.187 339.93,159.959 341.923,158.745 343.916,157.546 345.909,156.361 347.901,155.192 349.894,154.038 351.887,152.9 353.88,151.777 355.873,150.669 357.866,149.577 359.859,148.501 361.851,147.439 363.844,146.393 365.837,145.361 367.83,144.344 369.823,143.34 371.816,142.349 373.809,141.37 375.801,140.402 377.794,139.444 379.787,138.493 381.78,137.549 383.773,136.61 385.766,135.672 387.759,134.732 389.751,133.788 391.744,132.835 393.737,131.869 395.73,130.884 397.723,129.874 399.716,128.832 401.709,127.751 403.701,126.621 405.694,125.431 407.687,124.17 409.68,122.824 411.673,121.379 413.666,119.817 415.659,118.12 417.651,116.265 419.644,114.23 421.637,111.986 423.63,109.505 425.623,106.753 427.616,103.693 429.609,100.285 431.601,96.4828 433.594,92.2372 435.587,87.4928 437.58,82.1892 439.573,76.2596 441.566,69.6308 443.559,62.2227 445.551,53.9474 447.544,44.7091 449.537,34.403 450.015,31.6488" stroke-linejoin="round" stroke-width="0.5" stroke-linecap="butt" fill="none" stroke="#ff0000"/>
  </g>
  <clipPath id="cp00576432">
   <polygon points="0,432 576,432 576,0 0,0"/>
  </clipPath>
  <g clip-path="url(#cp00576432)">
   <polygon points="202.041,422.373 394.119,422.373 394.119,382.249 202.041,382.249" fill="none" shape-rendering="crispEdges"/>
   <polyline stroke-dasharray="16,0" points="202.041,422.373 394.119,422.373" stroke-linejoin="miter" stroke-width="0.5" stroke-linecap="square" fill="none" stroke="#262626"/>
   <polyline stroke-dasharray="16,0" points="202.041,382.249 394.119,382.249" stroke-linejoin="miter" stroke-width="0.5" stroke-linecap="square" fill="none" stroke="#262626"/>
   <polyline stroke-dasharray="16,0" points="202.041,422.373 202.041,382.249" stroke-linejoin="miter" stroke-width="0.5" stroke-linecap="square" fill="none" stroke="#262626"/>
   <polyline stroke-dasharray="16,0" points="394.119,422.373 394.119,382.249" stroke-linejoin="miter" stroke-width="0.5" stroke-linecap="square" fill="none" stroke="#262626"/>
   <text font-weight="normal" font-size="9" xml:space="preserve" font-style="normal" font-family="FreeSans" transform="translate(248.698,397.28) rotate(-0,-0,-5)">
    <tspan y="-2" x="0 5 8 13 18 21 25 " fill="rgb(0,0,0)">atan(x)</tspan>
   </text>
   <text font-weight="normal" font-size="9" xml:space="preserve" font-style="normal" font-family="FreeSans" transform="translate(248.698,416.342) rotate(-0,-0,-4)">
    <tspan y="-0" x="0 4 8 12 17 20 25 27 30 32 36 40 44 49 52 57 59 64 66 70 74 78 83 86 91 93 96 98 102 106 110 115 118 123 125 130 132 " fill="rgb(0,0,0)">x**9/9 - x**7/7 + x**5/5 - x**3/3 + x</tspan>
   </text>
   <polyline points="207.577,392.28 243.162,392.28" stroke-linejoin="round" stroke-width="0.5" stroke-linecap="butt" fill="none" stroke="#000000"/>
   <polyline stroke-dasharray="4,4,4,4" points="207.577,412.342 243.162,412.342" stroke-linejoin="round" stroke-width="0.5" stroke-linecap="butt" fill="none" stroke="#ff0000"/>
  </g>
 </g>
</svg>
