<?xml version='1.0' encoding='UTF-8' standalone='no'?>
<svg xmlns:xlink="http://www.w3.org/1999/xlink" viewBox="0 0 576 432" width="576pt" height="432pt" xmlns="http://www.w3.org/2000/svg">
 <title>Taylor Series for log(tan(x/2+pi/4))</title>
 <desc>
@author: Oscar Veliz
Creator: GL2PS 1.4.0, (C) 1999-2017 C. Geuzaine
For: Octave
CreationDate: Thu Feb 20 13:36:28 2020
</desc>
 <defs/>
 <polygon points="0,0 576,0 576,432 0,432" fill="none"/>
 <g>
  <polygon points="0,432 576,432 576,0 0,0" fill="none" shape-rendering="crispEdges"/>
  <clipPath id="cp00576432">
   <polygon points="0,432 576,432 576,0 0,0"/>
  </clipPath>
  <g clip-path="url(#cp00576432)">
   <polygon points="74.88,343.917 521.28,343.917 521.28,31.9608 74.88,31.9608" fill="none" shape-rendering="crispEdges"/>
   <polyline points="74.88,343.917 74.88,339.454" stroke-width="0.5" fill="none" stroke-linecap="butt" stroke-linejoin="miter" stroke="#262626"/>
   <polyline points="74.88,31.9608 74.88,36.4242" stroke-width="0.5" fill="none" stroke-linecap="butt" stroke-linejoin="miter" stroke="#262626"/>
   <polyline points="149.28,343.917 149.28,339.454" stroke-width="0.5" fill="none" stroke-linecap="butt" stroke-linejoin="miter" stroke="#262626"/>
   <polyline points="149.28,31.9608 149.28,36.4242" stroke-width="0.5" fill="none" stroke-linecap="butt" stroke-linejoin="miter" stroke="#262626"/>
   <polyline points="223.68,343.917 223.68,339.454" stroke-width="0.5" fill="none" stroke-linecap="butt" stroke-linejoin="miter" stroke="#262626"/>
   <polyline points="223.68,31.9608 223.68,36.4242" stroke-width="0.5" fill="none" stroke-linecap="butt" stroke-linejoin="miter" stroke="#262626"/>
   <polyline points="298.08,343.917 298.08,339.454" stroke-width="0.5" fill="none" stroke-linecap="butt" stroke-linejoin="miter" stroke="#262626"/>
   <polyline points="298.08,31.9608 298.08,36.4242" stroke-width="0.5" fill="none" stroke-linecap="butt" stroke-linejoin="miter" stroke="#262626"/>
   <polyline points="372.48,343.917 372.48,339.454" stroke-width="0.5" fill="none" stroke-linecap="butt" stroke-linejoin="miter" stroke="#262626"/>
   <polyline points="372.48,31.9608 372.48,36.4242" stroke-width="0.5" fill="none" stroke-linecap="butt" stroke-linejoin="miter" stroke="#262626"/>
   <polyline points="446.88,343.917 446.88,339.454" stroke-width="0.5" fill="none" stroke-linecap="butt" stroke-linejoin="miter" stroke="#262626"/>
   <polyline points="446.88,31.9608 446.88,36.4242" stroke-width="0.5" fill="none" stroke-linecap="butt" stroke-linejoin="miter" stroke="#262626"/>
   <polyline points="521.28,343.917 521.28,339.454" stroke-width="0.5" fill="none" stroke-linecap="butt" stroke-linejoin="miter" stroke="#262626"/>
   <polyline points="521.28,31.9608 521.28,36.4242" stroke-width="0.5" fill="none" stroke-linecap="butt" stroke-linejoin="miter" stroke="#262626"/>
   <text font-family="FreeSans" font-weight="normal" xml:space="preserve" transform="translate(65.88,359.416) rotate(-0,9,-8)" font-style="normal" font-size="10">
    <tspan fill="rgb(38,38,38)" y="-0" x="0 3 9 12 ">-1.5</tspan>
   </text>
   <text font-family="FreeSans" font-weight="normal" xml:space="preserve" transform="translate(144.78,359.416) rotate(-0,4.5,-8)" font-style="normal" font-size="10">
    <tspan fill="rgb(38,38,38)" y="-0" x="0 3 ">-1</tspan>
   </text>
   <text font-family="FreeSans" font-weight="normal" xml:space="preserve" transform="translate(214.68,359.416) rotate(-0,9,-8)" font-style="normal" font-size="10">
    <tspan fill="rgb(38,38,38)" y="-0" x="0 3 9 12 ">-0.5</tspan>
   </text>
   <text font-family="FreeSans" font-weight="normal" xml:space="preserve" transform="translate(295.08,359.416) rotate(-0,3,-8)" font-style="normal" font-size="10">
    <tspan fill="rgb(38,38,38)" y="-0" x="0 ">0</tspan>
   </text>
   <text font-family="FreeSans" font-weight="normal" xml:space="preserve" transform="translate(364.98,359.416) rotate(-0,7.5,-8)" font-style="normal" font-size="10">
    <tspan fill="rgb(38,38,38)" y="-0" x="0 6 9 ">0.5</tspan>
   </text>
   <text font-family="FreeSans" font-weight="normal" xml:space="preserve" transform="translate(443.88,359.416) rotate(-0,3,-8)" font-style="normal" font-size="10">
    <tspan fill="rgb(38,38,38)" y="-0" x="0 ">1</tspan>
   </text>
   <text font-family="FreeSans" font-weight="normal" xml:space="preserve" transform="translate(513.78,359.416) rotate(-0,7.5,-8)" font-style="normal" font-size="10">
    <tspan fill="rgb(38,38,38)" y="-0" x="0 6 9 ">1.5</tspan>
   </text>
   <polyline points="74.88,343.917 79.348,343.917" stroke-width="0.5" fill="none" stroke-linecap="butt" stroke-linejoin="miter" stroke="#262626"/>
   <polyline points="521.28,343.917 516.812,343.917" stroke-width="0.5" fill="none" stroke-linecap="butt" stroke-linejoin="miter" stroke="#262626"/>
   <polyline points="74.88,265.928 79.348,265.928" stroke-width="0.5" fill="none" stroke-linecap="butt" stroke-linejoin="miter" stroke="#262626"/>
   <polyline points="521.28,265.928 516.812,265.928" stroke-width="0.5" fill="none" stroke-linecap="butt" stroke-linejoin="miter" stroke="#262626"/>
   <polyline points="74.88,187.939 79.348,187.939" stroke-width="0.5" fill="none" stroke-linecap="butt" stroke-linejoin="miter" stroke="#262626"/>
   <polyline points="521.28,187.939 516.812,187.939" stroke-width="0.5" fill="none" stroke-linecap="butt" stroke-linejoin="miter" stroke="#262626"/>
   <polyline points="74.88,109.95 79.348,109.95" stroke-width="0.5" fill="none" stroke-linecap="butt" stroke-linejoin="miter" stroke="#262626"/>
   <polyline points="521.28,109.95 516.812,109.95" stroke-width="0.5" fill="none" stroke-linecap="butt" stroke-linejoin="miter" stroke="#262626"/>
   <polyline points="74.88,31.9608 79.348,31.9608" stroke-width="0.5" fill="none" stroke-linecap="butt" stroke-linejoin="miter" stroke="#262626"/>
   <polyline points="521.28,31.9608 516.812,31.9608" stroke-width="0.5" fill="none" stroke-linecap="butt" stroke-linejoin="miter" stroke="#262626"/>
   <text font-family="FreeSans" font-weight="normal" xml:space="preserve" transform="translate(60.8755,347.917) rotate(-0,9,-4)" font-style="normal" font-size="10">
    <tspan fill="rgb(38,38,38)" y="-0" x="0 3 ">-2</tspan>
   </text>
   <text font-family="FreeSans" font-weight="normal" xml:space="preserve" transform="translate(60.8755,269.928) rotate(-0,9,-4)" font-style="normal" font-size="10">
    <tspan fill="rgb(38,38,38)" y="-0" x="0 3 ">-1</tspan>
   </text>
   <text font-family="FreeSans" font-weight="normal" xml:space="preserve" transform="translate(63.8755,191.939) rotate(-0,6,-4)" font-style="normal" font-size="10">
    <tspan fill="rgb(38,38,38)" y="-0" x="0 ">0</tspan>
   </text>
   <text font-family="FreeSans" font-weight="normal" xml:space="preserve" transform="translate(63.8755,113.95) rotate(-0,6,-4)" font-style="normal" font-size="10">
    <tspan fill="rgb(38,38,38)" y="-0" x="0 ">1</tspan>
   </text>
   <text font-family="FreeSans" font-weight="normal" xml:space="preserve" transform="translate(63.8755,35.9608) rotate(-0,6,-4)" font-style="normal" font-size="10">
    <tspan fill="rgb(38,38,38)" y="-0" x="0 ">2</tspan>
   </text>
   <polyline points="74.88,343.917 521.28,343.917" stroke-width="0.5" fill="none" stroke-linecap="square" stroke-linejoin="miter" stroke="#262626" stroke-dasharray="16,0"/>
   <polyline points="74.88,31.9608 521.28,31.9608" stroke-width="0.5" fill="none" stroke-linecap="square" stroke-linejoin="miter" stroke="#262626" stroke-dasharray="16,0"/>
   <polyline points="74.88,343.917 74.88,31.9608" stroke-width="0.5" fill="none" stroke-linecap="square" stroke-linejoin="miter" stroke="#262626" stroke-dasharray="16,0"/>
   <polyline points="521.28,343.917 521.28,31.9608" stroke-width="0.5" fill="none" stroke-linecap="square" stroke-linejoin="miter" stroke="#262626" stroke-dasharray="16,0"/>
   <text font-family="FreeSans" font-weight="bold" xml:space="preserve" transform="translate(242.58,21.9608) rotate(-0,55.5,0)" font-style="normal" font-size="11">
    <tspan fill="rgb(0,0,0)" y="-3" x="0 7 13 19 22 29 33 36 43 49 53 56 62 68 71 78 84 90 93 99 105 ">Taylor Series n=5 a=0</tspan>
   </text>
   <text font-family="FreeSans" font-weight="normal" xml:space="preserve" transform="translate(53.3755,187.939) rotate(-90,2.5,0)" font-style="normal" font-size="11">
    <tspan fill="rgb(38,38,38)" y="-2" x="0 ">y</tspan>
   </text>
   <text font-family="FreeSans" font-weight="normal" xml:space="preserve" transform="translate(295.58,371.416) rotate(-0,2.5,-7)" font-style="normal" font-size="11">
    <tspan fill="rgb(38,38,38)" y="-0" x="0 ">x</tspan>
   </text>
   <polyline points="104.221,344.229 104.372,343.929 104.819,343.053 105.266,342.186 105.712,341.328 106.159,340.479 106.606,339.639 107.053,338.807 107.5,337.984 107.947,337.169 108.394,336.362 108.84,335.563 109.287,334.772 109.734,333.989 110.181,333.213 110.628,332.444 111.075,331.682 111.521,330.927 111.968,330.18 112.415,329.439 112.862,328.704 113.309,327.976 113.756,327.255 114.203,326.539 114.649,325.83 115.096,325.127 115.543,324.43 115.99,323.738 116.437,323.053 116.884,322.372 117.33,321.698 117.777,321.029 118.224,320.365 118.671,319.706 119.118,319.053 119.565,318.405 120.012,317.761 120.458,317.123 120.905,316.489 121.352,315.86 121.799,315.236 122.246,314.617 122.693,314.001 123.139,313.391 123.586,312.785 124.033,312.183 124.48,311.585 124.927,310.991 125.374,310.402 125.821,309.817 126.267,309.235 126.714,308.658 127.161,308.084 127.608,307.515 128.055,306.949 128.502,306.386 128.948,305.828 129.395,305.273 129.842,304.721 130.289,304.174 130.736,303.629 131.183,303.088 131.63,302.55 132.076,302.016 132.523,301.485 132.97,300.957 133.417,300.432 133.864,299.911 134.311,299.392 134.757,298.877 135.204,298.365 135.651,297.855 136.098,297.349 136.545,296.845 136.992,296.344 137.439,295.846 137.885,295.351 138.332,294.859 138.779,294.369 139.226,293.882 139.673,293.398 140.12,292.916 140.566,292.437 141.013,291.961 141.46,291.487 141.907,291.015 142.354,290.546 142.801,290.079 143.248,289.615 143.694,289.153 144.141,288.693 144.588,288.236 145.035,287.781 145.482,287.329 145.929,286.878 146.375,286.43 146.822,285.984 147.269,285.54 147.716,285.098 148.163,284.659 148.61,284.221 149.057,283.786 149.503,283.352 149.95,282.921 150.397,282.491 150.844,282.064 151.291,281.638 151.738,281.215 152.185,280.793 152.631,280.373 153.078,279.955 153.525,279.539 153.972,279.125 154.419,278.712 154.866,278.302 155.312,277.893 155.759,277.485 156.206,277.08 156.653,276.676 157.1,276.274 157.547,275.874 157.994,275.475 158.44,275.078 158.887,274.683 159.334,274.289 159.781,273.897 160.228,273.506 160.675,273.117 161.121,272.729 161.568,272.343 162.015,271.959 162.462,271.576 162.909,271.194 163.356,270.814 163.803,270.435 164.249,270.058 164.696,269.682 165.143,269.308 165.59,268.935 166.037,268.563 166.484,268.193 166.93,267.824 167.377,267.457 167.824,267.091 168.271,266.726 168.718,266.362 169.165,266 169.612,265.639 170.058,265.279 170.505,264.921 170.952,264.563 171.399,264.207 171.846,263.853 172.293,263.499 172.739,263.147 173.186,262.795 173.633,262.445 174.08,262.096 174.527,261.749 174.974,261.402 175.421,261.057 175.867,260.712 176.314,260.369 176.761,260.027 177.208,259.686 177.655,259.346 178.102,259.007 178.548,258.669 178.995,258.333 179.442,257.997 179.889,257.662 180.336,257.328 180.783,256.996 181.23,256.664 181.676,256.333 182.123,256.004 182.57,255.675 183.017,255.347 183.464,255.02 183.911,254.695 184.357,254.37 184.804,254.046 185.251,253.723 185.698,253.401 186.145,253.079 186.592,252.759 187.039,252.44 187.485,252.121 187.932,251.803 188.379,251.487 188.826,251.171 189.273,250.856 189.72,250.542 190.166,250.228 190.613,249.916 191.06,249.604 191.507,249.293 191.954,248.983 192.401,248.674 192.848,248.365 193.294,248.057 193.741,247.751 194.188,247.444 194.635,247.139 195.082,246.834 195.529,246.531 195.975,246.228 196.422,245.925 196.869,245.624 197.316,245.323 197.763,245.023 198.21,244.723 198.657,244.424 199.103,244.126 199.55,243.829 199.997,243.532 200.444,243.237 200.891,242.941 201.338,242.647 201.785,242.353 202.231,242.06 202.678,241.767 203.125,241.475 203.572,241.184 204.019,240.893 204.466,240.603 204.912,240.314 205.359,240.025 205.806,239.737 206.253,239.45 206.7,239.163 207.147,238.877 207.594,238.591 208.04,238.306 208.487,238.021 208.934,237.737 209.381,237.454 209.828,237.171 210.275,236.889 210.721,236.608 211.168,236.327 211.615,236.046 212.062,235.766 212.509,235.487 212.956,235.208 213.403,234.93 213.849,234.652 214.296,234.375 214.743,234.098 215.19,233.822 215.637,233.546 216.084,233.271 216.53,232.997 216.977,232.722 217.424,232.449 217.871,232.176 218.318,231.903 218.765,231.631 219.212,231.359 219.658,231.088 220.105,230.817 220.552,230.547 220.999,230.277 221.446,230.008 221.893,229.739 222.339,229.47 222.786,229.202 223.233,228.935 223.68,228.668 224.127,228.401 224.574,228.135 225.021,227.869 225.467,227.604 225.914,227.339 226.361,227.074 226.808,226.81 227.255,226.547 227.702,226.283 228.148,226.02 228.595,225.758 229.042,225.496 229.489,225.234 229.936,224.973 230.383,224.712 230.83,224.451 231.276,224.191 231.723,223.931 232.17,223.672 232.617,223.413 233.064,223.154 233.511,222.896 233.957,222.638 234.404,222.381 234.851,222.123 235.298,221.866 235.745,221.61 236.192,221.354 236.639,221.098 237.085,220.842 237.532,220.587 237.979,220.332 238.426,220.078 238.873,219.824 239.32,219.57 239.766,219.316 240.213,219.063 240.66,218.81 241.107,218.557 241.554,218.305 242.001,218.053 242.448,217.801 242.894,217.55 243.341,217.299 243.788,217.048 244.235,216.797 244.682,216.547 245.129,216.297 245.575,216.047 246.022,215.798 246.469,215.549 246.916,215.3 247.363,215.051 247.81,214.803 248.257,214.555 248.703,214.307 249.15,214.059 249.597,213.812 250.044,213.565 250.491,213.318 250.938,213.071 251.385,212.825 251.831,212.579 252.278,212.333 252.725,212.087 253.172,211.842 253.619,211.597 254.066,211.352 254.512,211.107 254.959,210.863 255.406,210.618 255.853,210.374 256.3,210.13 256.747,209.887 257.194,209.643 257.64,209.4 258.087,209.157 258.534,208.914 258.981,208.672 259.428,208.429 259.875,208.187 260.321,207.945 260.768,207.703 261.215,207.461 261.662,207.22 262.109,206.979 262.556,206.737 263.003,206.496 263.449,206.256 263.896,206.015 264.343,205.775 264.79,205.534 265.237,205.294 265.684,205.054 266.13,204.815 266.577,204.575 267.024,204.335 267.471,204.096 267.918,203.857 268.365,203.618 268.812,203.379 269.258,203.14 269.705,202.902 270.152,202.663 270.599,202.425 271.046,202.187 271.493,201.949 271.939,201.711 272.386,201.473 272.833,201.235 273.28,200.998 273.727,200.76 274.174,200.523 274.621,200.286 275.067,200.049 275.514,199.812 275.961,199.575 276.408,199.338 276.855,199.101 277.302,198.865 277.748,198.628 278.195,198.392 278.642,198.156 279.089,197.92 279.536,197.684 279.983,197.448 280.43,197.212 280.876,196.976 281.323,196.74 281.77,196.505 282.217,196.269 282.664,196.033 283.111,195.798 283.557,195.563 284.004,195.327 284.451,195.092 284.898,194.857 285.345,194.622 285.792,194.387 286.239,194.152 286.685,193.917 287.132,193.682 287.579,193.447 288.026,193.213 288.473,192.978 288.92,192.743 289.366,192.509 289.813,192.274 290.26,192.039 290.707,191.805 291.154,191.57 291.601,191.336 292.048,191.102 292.494,190.867 292.941,190.633 293.388,190.399 293.835,190.164 294.282,189.93 294.729,189.696 295.175,189.461 295.622,189.227 296.069,188.993 296.516,188.759 296.963,188.525 297.41,188.29 297.857,188.056 298.303,187.822 298.75,187.588 299.197,187.353 299.644,187.119 300.091,186.885 300.538,186.651 300.984,186.417 301.431,186.182 301.878,185.948 302.325,185.714 302.772,185.479 303.219,185.245 303.666,185.011 304.112,184.776 304.559,184.542 305.006,184.308 305.453,184.073 305.9,183.839 306.347,183.604 306.794,183.369 307.24,183.135 307.687,182.9 308.134,182.665 308.581,182.431 309.028,182.196 309.475,181.961 309.921,181.726 310.368,181.491 310.815,181.256 311.262,181.021 311.709,180.786 312.156,180.551 312.603,180.315 313.049,180.08 313.496,179.845 313.943,179.609 314.39,179.373 314.837,179.138 315.284,178.902 315.73,178.666 316.177,178.43 316.624,178.194 317.071,177.958 317.518,177.722 317.965,177.486 318.412,177.25 318.858,177.013 319.305,176.777 319.752,176.54 320.199,176.303 320.646,176.066 321.093,175.829 321.539,175.592 321.986,175.355 322.433,175.118 322.88,174.88 323.327,174.643 323.774,174.405 324.221,174.167 324.667,173.929 325.114,173.691 325.561,173.453 326.008,173.215 326.455,172.976 326.902,172.738 327.348,172.499 327.795,172.26 328.242,172.021 328.689,171.782 329.136,171.543 329.583,171.303 330.03,171.063 330.476,170.824 330.923,170.584 331.37,170.344 331.817,170.103 332.264,169.863 332.711,169.622 333.157,169.382 333.604,169.141 334.051,168.899 334.498,168.658 334.945,168.417 335.392,168.175 335.839,167.933 336.285,167.691 336.732,167.449 337.179,167.206 337.626,166.964 338.073,166.721 338.52,166.478 338.966,166.235 339.413,165.991 339.86,165.748 340.307,165.504 340.754,165.26 341.201,165.015 341.648,164.771 342.094,164.526 342.541,164.281 342.988,164.036 343.435,163.791 343.882,163.545 344.329,163.299 344.775,163.053 345.222,162.807 345.669,162.56 346.116,162.313 346.563,162.066 347.01,161.819 347.457,161.571 347.903,161.323 348.35,161.075 348.797,160.827 349.244,160.578 349.691,160.329 350.138,160.08 350.585,159.831 351.031,159.581 351.478,159.331 351.925,159.081 352.372,158.83 352.819,158.579 353.266,158.328 353.712,158.077 354.159,157.825 354.606,157.573 355.053,157.321 355.5,157.068 355.947,156.815 356.393,156.562 356.84,156.308 357.287,156.054 357.734,155.8 358.181,155.546 358.628,155.291 359.075,155.036 359.521,154.78 359.968,154.524 360.415,154.268 360.862,154.012 361.309,153.755 361.756,153.497 362.203,153.24 362.649,152.982 363.096,152.724 363.543,152.465 363.99,152.206 364.437,151.947 364.884,151.687 365.33,151.427 365.777,151.166 366.224,150.905 366.671,150.644 367.118,150.382 367.565,150.12 368.012,149.858 368.458,149.595 368.905,149.331 369.352,149.068 369.799,148.804 370.246,148.539 370.693,148.274 371.139,148.009 371.586,147.743 372.033,147.477 372.48,147.21 372.927,146.943 373.374,146.675 373.821,146.408 374.267,146.139 374.714,145.87 375.161,145.601 375.608,145.331 376.055,145.061 376.502,144.79 376.948,144.519 377.395,144.247 377.842,143.975 378.289,143.702 378.736,143.429 379.183,143.156 379.63,142.881 380.076,142.607 380.523,142.332 380.97,142.056 381.417,141.78 381.864,141.503 382.311,141.226 382.757,140.948 383.204,140.67 383.651,140.391 384.098,140.112 384.545,139.832 384.992,139.551 385.439,139.27 385.885,138.989 386.332,138.707 386.779,138.424 387.226,138.141 387.673,137.857 388.12,137.572 388.566,137.287 389.013,137.001 389.46,136.715 389.907,136.428 390.354,136.141 390.801,135.853 391.248,135.564 391.694,135.275 392.141,134.985 392.588,134.694 393.035,134.403 393.482,134.111 393.929,133.818 394.375,133.525 394.822,133.231 395.269,132.937 395.716,132.641 396.163,132.346 396.61,132.049 397.057,131.752 397.503,131.454 397.95,131.155 398.397,130.855 398.844,130.555 399.291,130.254 399.738,129.953 400.185,129.65 400.631,129.347 401.078,129.044 401.525,128.739 401.972,128.434 402.419,128.127 402.866,127.821 403.312,127.513 403.759,127.204 404.206,126.895 404.653,126.585 405.1,126.274 405.547,125.962 405.993,125.65 406.44,125.336 406.887,125.022 407.334,124.707 407.781,124.391 408.228,124.074 408.675,123.757 409.121,123.438 409.568,123.119 410.015,122.799 410.462,122.477 410.909,122.155 411.356,121.832 411.803,121.508 412.249,121.183 412.696,120.858 413.143,120.531 413.59,120.203 414.037,119.874 414.484,119.545 414.93,119.214 415.377,118.882 415.824,118.55 416.271,118.216 416.718,117.881 417.165,117.545 417.612,117.209 418.058,116.871 418.505,116.532 418.952,116.192 419.399,115.851 419.846,115.509 420.293,115.166 420.739,114.821 421.186,114.476 421.633,114.129 422.08,113.781 422.527,113.433 422.974,113.083 423.421,112.731 423.867,112.379 424.314,112.025 424.761,111.671 425.208,111.315 425.655,110.957 426.102,110.599 426.548,110.239 426.995,109.878 427.442,109.516 427.889,109.152 428.336,108.787 428.783,108.421 429.23,108.054 429.676,107.685 430.123,107.314 430.57,106.943 431.017,106.57 431.464,106.196 431.911,105.82 432.357,105.443 432.804,105.064 433.251,104.684 433.698,104.302 434.145,103.919 434.592,103.535 435.039,103.149 435.485,102.761 435.932,102.372 436.379,101.981 436.826,101.589 437.273,101.195 437.72,100.8 438.166,100.403 438.613,100.004 439.06,99.6038 439.507,99.2017 439.954,98.798 440.401,98.3925 440.848,97.9854 441.294,97.5765 441.741,97.1658 442.188,96.7533 442.635,96.339 443.082,95.9229 443.529,95.505 443.975,95.0851 444.422,94.6635 444.869,94.2399 445.316,93.8143 445.763,93.3868 446.21,92.9574 446.657,92.5259 447.103,92.0925 447.55,91.657 447.997,91.2194 448.444,90.7798 448.891,90.338 449.338,89.8941 449.784,89.448 450.231,88.9998 450.678,88.5493 451.125,88.0966 451.572,87.6417 452.019,87.1845 452.466,86.7249 452.912,86.263 453.359,85.7988 453.806,85.3321 454.253,84.863 454.7,84.3915 455.147,83.9174 455.594,83.4409 456.04,82.9617 456.487,82.48 456.934,81.9957 457.381,81.5088 457.828,81.0191 458.275,80.5267 458.721,80.0316 459.168,79.5337 459.615,79.033 460.062,78.5294 460.509,78.0229 460.956,77.5135 461.402,77.0011 461.849,76.4857 462.296,75.9672 462.743,75.4456 463.19,74.921 463.637,74.3931 464.084,73.862 464.53,73.3276 464.977,72.7899 465.424,72.2488 465.871,71.7044 466.318,71.1565 466.765,70.6051 467.212,70.0501 467.658,69.4915 468.105,68.9293 468.552,68.3634 468.999,67.7936 469.446,67.2201 469.893,66.6427 470.339,66.0613 470.786,65.476 471.233,64.8866 471.68,64.2931 472.127,63.6954 472.574,63.0934 473.021,62.4872 473.467,61.8765 473.914,61.2614 474.361,60.6418 474.808,60.0176 475.255,59.3887 475.702,58.7551 476.148,58.1167 476.595,57.4733 477.042,56.825 477.489,56.1716 477.936,55.513 478.383,54.8492 478.83,54.1801 479.276,53.5055 479.723,52.8254 480.17,52.1398 480.617,51.4484 481.064,50.7511 481.511,50.048 481.957,49.3388 482.404,48.6235 482.851,47.9019 483.298,47.174 483.745,46.4395 484.192,45.6984 484.639,44.9506 485.085,44.1959 485.532,43.4342 485.979,42.6654 486.426,41.8892 486.873,41.1057 487.32,40.3145 487.766,39.5156 488.213,38.7088 488.66,37.8939 489.107,37.0707 489.554,36.2392 490.001,35.399 490.448,34.5501 490.894,33.6922 491.341,32.8251 491.788,31.9486 491.939,31.6488" stroke-width="0.5" fill="none" stroke-linecap="butt" stroke-linejoin="round" stroke="#000000"/>
   <polyline points="94.0493,344.229 98.7943,337.616 106.766,327.253 114.737,317.576 122.709,308.523 130.68,300.04 138.651,292.074 146.623,284.578 154.594,277.507 162.566,270.819 170.537,264.476 178.509,258.442 186.48,252.686 194.451,247.176 202.423,241.885 210.394,236.788 218.366,231.861 226.337,227.082 234.309,222.433 242.28,217.894 250.251,213.45 258.223,209.083 266.194,204.78 274.166,200.527 282.137,196.311 290.109,192.119 298.08,187.939 306.051,183.759 314.023,179.567 321.994,175.351 329.966,171.098 337.937,166.795 345.909,162.428 353.88,157.984 361.851,153.445 369.823,148.796 377.794,144.017 385.766,139.09 393.737,133.993 401.709,128.702 409.68,123.192 417.651,117.436 425.623,111.402 433.594,105.059 441.566,98.3713 449.537,91.3 457.509,83.8039 465.48,75.8383 473.451,67.355 481.423,58.3023 489.394,48.6246 497.366,38.2624 502.111,31.6488" stroke-width="0.5" fill="none" stroke-linecap="butt" stroke-linejoin="round" stroke="#ff0000" stroke-dasharray="4,4,4,4"/>
  </g>
  <clipPath id="cp00576432">
   <polygon points="0,432 576,432 576,0 0,0"/>
  </clipPath>
  <g clip-path="url(#cp00576432)">
   <polygon points="165.527,422.373 430.633,422.373 430.633,382.249 165.527,382.249" fill="none" shape-rendering="crispEdges"/>
   <polyline points="165.527,422.373 430.633,422.373" stroke-width="0.5" fill="none" stroke-linecap="square" stroke-linejoin="miter" stroke="#262626" stroke-dasharray="16,0"/>
   <polyline points="165.527,382.249 430.633,382.249" stroke-width="0.5" fill="none" stroke-linecap="square" stroke-linejoin="miter" stroke="#262626" stroke-dasharray="16,0"/>
   <polyline points="165.527,422.373 165.527,382.249" stroke-width="0.5" fill="none" stroke-linecap="square" stroke-linejoin="miter" stroke="#262626" stroke-dasharray="16,0"/>
   <polyline points="430.633,422.373 430.633,382.249" stroke-width="0.5" fill="none" stroke-linecap="square" stroke-linejoin="miter" stroke="#262626" stroke-dasharray="16,0"/>
   <text font-family="FreeSans" font-weight="normal" xml:space="preserve" transform="translate(212.183,397.28) rotate(-0,-0,-5)" font-style="normal" font-size="9">
    <tspan fill="rgb(0,0,0)" y="-2" x="0 2 7 12 15 18 23 28 31 35 38 43 48 53 55 58 63 66 ">log(tan(x/2+pi/4))</tspan>
   </text>
   <text font-family="FreeSans" font-weight="normal" xml:space="preserve" transform="translate(212.183,416.342) rotate(-0,-0,-4)" font-style="normal" font-size="9">
    <tspan fill="rgb(0,0,0)" y="-0" x="0 4 8 12 17 20 25 30 32 37 39 43 47 51 56 59 64 66 71 73 77 79 82 84 89 94 99 104 107 112 117 122 127 132 137 142 147 152 157 162 167 172 177 182 187 192 197 202 ">x**5/24 + x**3/6 + x - 5551/50000000000000000000</tspan>
   </text>
   <polyline points="171.062,392.28 206.648,392.28" stroke-width="0.5" fill="none" stroke-linecap="butt" stroke-linejoin="round" stroke="#000000"/>
   <polyline points="171.062,412.342 206.648,412.342" stroke-width="0.5" fill="none" stroke-linecap="butt" stroke-linejoin="round" stroke="#ff0000" stroke-dasharray="4,4,4,4"/>
  </g>
 </g>
</svg>
