<?xml version='1.0' encoding='UTF-8' standalone='no'?>
<svg xmlns:xlink="http://www.w3.org/1999/xlink" width="576pt" xmlns="http://www.w3.org/2000/svg" viewBox="0 0 576 432" height="432pt">
 <title>Taylor Series for sec(x)</title>
 <desc>
@author: Oscar Veliz
Creator: GL2PS 1.4.0, (C) 1999-2017 C. Geuzaine
For: Octave
CreationDate: Sun Feb 23 14:16:06 2020
</desc>
 <defs/>
 <polygon points="0,0 576,0 576,432 0,432" fill="none"/>
 <g>
  <polygon points="0,432 576,432 576,0 0,0" fill="none" shape-rendering="crispEdges"/>
  <clipPath id="cp00576432">
   <polygon points="0,432 576,432 576,0 0,0"/>
  </clipPath>
  <g clip-path="url(#cp00576432)">
   <polygon points="74.88,343.917 521.28,343.917 521.28,31.9608 74.88,31.9608" fill="none" shape-rendering="crispEdges"/>
   <polyline stroke="#262626" stroke-linejoin="miter" stroke-width="0.5" points="74.88,343.917 74.88,339.454" stroke-linecap="butt" fill="none"/>
   <polyline stroke="#262626" stroke-linejoin="miter" stroke-width="0.5" points="74.88,31.9608 74.88,36.4242" stroke-linecap="butt" fill="none"/>
   <polyline stroke="#262626" stroke-linejoin="miter" stroke-width="0.5" points="149.28,343.917 149.28,339.454" stroke-linecap="butt" fill="none"/>
   <polyline stroke="#262626" stroke-linejoin="miter" stroke-width="0.5" points="149.28,31.9608 149.28,36.4242" stroke-linecap="butt" fill="none"/>
   <polyline stroke="#262626" stroke-linejoin="miter" stroke-width="0.5" points="223.68,343.917 223.68,339.454" stroke-linecap="butt" fill="none"/>
   <polyline stroke="#262626" stroke-linejoin="miter" stroke-width="0.5" points="223.68,31.9608 223.68,36.4242" stroke-linecap="butt" fill="none"/>
   <polyline stroke="#262626" stroke-linejoin="miter" stroke-width="0.5" points="298.08,343.917 298.08,339.454" stroke-linecap="butt" fill="none"/>
   <polyline stroke="#262626" stroke-linejoin="miter" stroke-width="0.5" points="298.08,31.9608 298.08,36.4242" stroke-linecap="butt" fill="none"/>
   <polyline stroke="#262626" stroke-linejoin="miter" stroke-width="0.5" points="372.48,343.917 372.48,339.454" stroke-linecap="butt" fill="none"/>
   <polyline stroke="#262626" stroke-linejoin="miter" stroke-width="0.5" points="372.48,31.9608 372.48,36.4242" stroke-linecap="butt" fill="none"/>
   <polyline stroke="#262626" stroke-linejoin="miter" stroke-width="0.5" points="446.88,343.917 446.88,339.454" stroke-linecap="butt" fill="none"/>
   <polyline stroke="#262626" stroke-linejoin="miter" stroke-width="0.5" points="446.88,31.9608 446.88,36.4242" stroke-linecap="butt" fill="none"/>
   <polyline stroke="#262626" stroke-linejoin="miter" stroke-width="0.5" points="521.28,343.917 521.28,339.454" stroke-linecap="butt" fill="none"/>
   <polyline stroke="#262626" stroke-linejoin="miter" stroke-width="0.5" points="521.28,31.9608 521.28,36.4242" stroke-linecap="butt" fill="none"/>
   <text font-family="FreeSans" xml:space="preserve" transform="translate(65.88,359.416) rotate(-0,9,-8)" font-weight="normal" font-size="10" font-style="normal">
    <tspan fill="rgb(38,38,38)" x="0 3 9 12 " y="-0">-1.5</tspan>
   </text>
   <text font-family="FreeSans" xml:space="preserve" transform="translate(144.78,359.416) rotate(-0,4.5,-8)" font-weight="normal" font-size="10" font-style="normal">
    <tspan fill="rgb(38,38,38)" x="0 3 " y="-0">-1</tspan>
   </text>
   <text font-family="FreeSans" xml:space="preserve" transform="translate(214.68,359.416) rotate(-0,9,-8)" font-weight="normal" font-size="10" font-style="normal">
    <tspan fill="rgb(38,38,38)" x="0 3 9 12 " y="-0">-0.5</tspan>
   </text>
   <text font-family="FreeSans" xml:space="preserve" transform="translate(295.08,359.416) rotate(-0,3,-8)" font-weight="normal" font-size="10" font-style="normal">
    <tspan fill="rgb(38,38,38)" x="0 " y="-0">0</tspan>
   </text>
   <text font-family="FreeSans" xml:space="preserve" transform="translate(364.98,359.416) rotate(-0,7.5,-8)" font-weight="normal" font-size="10" font-style="normal">
    <tspan fill="rgb(38,38,38)" x="0 6 9 " y="-0">0.5</tspan>
   </text>
   <text font-family="FreeSans" xml:space="preserve" transform="translate(443.88,359.416) rotate(-0,3,-8)" font-weight="normal" font-size="10" font-style="normal">
    <tspan fill="rgb(38,38,38)" x="0 " y="-0">1</tspan>
   </text>
   <text font-family="FreeSans" xml:space="preserve" transform="translate(513.78,359.416) rotate(-0,7.5,-8)" font-weight="normal" font-size="10" font-style="normal">
    <tspan fill="rgb(38,38,38)" x="0 6 9 " y="-0">1.5</tspan>
   </text>
   <polyline stroke="#262626" stroke-linejoin="miter" stroke-width="0.5" points="74.88,343.917 79.348,343.917" stroke-linecap="butt" fill="none"/>
   <polyline stroke="#262626" stroke-linejoin="miter" stroke-width="0.5" points="521.28,343.917 516.812,343.917" stroke-linecap="butt" fill="none"/>
   <polyline stroke="#262626" stroke-linejoin="miter" stroke-width="0.5" points="74.88,265.928 79.348,265.928" stroke-linecap="butt" fill="none"/>
   <polyline stroke="#262626" stroke-linejoin="miter" stroke-width="0.5" points="521.28,265.928 516.812,265.928" stroke-linecap="butt" fill="none"/>
   <polyline stroke="#262626" stroke-linejoin="miter" stroke-width="0.5" points="74.88,187.939 79.348,187.939" stroke-linecap="butt" fill="none"/>
   <polyline stroke="#262626" stroke-linejoin="miter" stroke-width="0.5" points="521.28,187.939 516.812,187.939" stroke-linecap="butt" fill="none"/>
   <polyline stroke="#262626" stroke-linejoin="miter" stroke-width="0.5" points="74.88,109.95 79.348,109.95" stroke-linecap="butt" fill="none"/>
   <polyline stroke="#262626" stroke-linejoin="miter" stroke-width="0.5" points="521.28,109.95 516.812,109.95" stroke-linecap="butt" fill="none"/>
   <polyline stroke="#262626" stroke-linejoin="miter" stroke-width="0.5" points="74.88,31.9608 79.348,31.9608" stroke-linecap="butt" fill="none"/>
   <polyline stroke="#262626" stroke-linejoin="miter" stroke-width="0.5" points="521.28,31.9608 516.812,31.9608" stroke-linecap="butt" fill="none"/>
   <text font-family="FreeSans" xml:space="preserve" transform="translate(60.8755,347.917) rotate(-0,9,-4)" font-weight="normal" font-size="10" font-style="normal">
    <tspan fill="rgb(38,38,38)" x="0 3 " y="-0">-1</tspan>
   </text>
   <text font-family="FreeSans" xml:space="preserve" transform="translate(63.8755,269.928) rotate(-0,6,-4)" font-weight="normal" font-size="10" font-style="normal">
    <tspan fill="rgb(38,38,38)" x="0 " y="-0">0</tspan>
   </text>
   <text font-family="FreeSans" xml:space="preserve" transform="translate(63.8755,191.939) rotate(-0,6,-4)" font-weight="normal" font-size="10" font-style="normal">
    <tspan fill="rgb(38,38,38)" x="0 " y="-0">1</tspan>
   </text>
   <text font-family="FreeSans" xml:space="preserve" transform="translate(63.8755,113.95) rotate(-0,6,-4)" font-weight="normal" font-size="10" font-style="normal">
    <tspan fill="rgb(38,38,38)" x="0 " y="-0">2</tspan>
   </text>
   <text font-family="FreeSans" xml:space="preserve" transform="translate(63.8755,35.9608) rotate(-0,6,-4)" font-weight="normal" font-size="10" font-style="normal">
    <tspan fill="rgb(38,38,38)" x="0 " y="-0">3</tspan>
   </text>
   <polyline stroke="#262626" stroke-linejoin="miter" stroke-width="0.5" stroke-dasharray="16,0" points="74.88,343.917 521.28,343.917" stroke-linecap="square" fill="none"/>
   <polyline stroke="#262626" stroke-linejoin="miter" stroke-width="0.5" stroke-dasharray="16,0" points="74.88,31.9608 521.28,31.9608" stroke-linecap="square" fill="none"/>
   <polyline stroke="#262626" stroke-linejoin="miter" stroke-width="0.5" stroke-dasharray="16,0" points="74.88,343.917 74.88,31.9608" stroke-linecap="square" fill="none"/>
   <polyline stroke="#262626" stroke-linejoin="miter" stroke-width="0.5" stroke-dasharray="16,0" points="521.28,343.917 521.28,31.9608" stroke-linecap="square" fill="none"/>
   <text font-family="FreeSans" xml:space="preserve" transform="translate(239.58,21.9608) rotate(-0,58.5,0)" font-weight="bold" font-size="11" font-style="normal">
    <tspan fill="rgb(0,0,0)" x="0 7 13 19 22 29 33 36 43 49 53 56 62 68 71 78 84 90 96 99 105 111 " y="-3">Taylor Series n=11 a=0</tspan>
   </text>
   <text font-family="FreeSans" xml:space="preserve" transform="translate(53.3755,187.939) rotate(-90,2.5,0)" font-weight="normal" font-size="11" font-style="normal">
    <tspan fill="rgb(38,38,38)" x="0 " y="-2">y</tspan>
   </text>
   <text font-family="FreeSans" xml:space="preserve" transform="translate(295.58,371.416) rotate(-0,2.5,-7)" font-weight="normal" font-size="11" font-style="normal">
    <tspan fill="rgb(38,38,38)" x="0 " y="-0">x</tspan>
   </text>
   <polyline stroke="#000000" stroke-linejoin="round" stroke-width="0.5" points="114.844,31.6488 115.096,32.7715 115.543,34.7266 115.99,36.6471 116.437,38.534 116.884,40.388 117.33,42.21 117.777,44.0008 118.224,45.7613 118.671,47.492 119.118,49.1938 119.565,50.8674 120.012,52.5134 120.458,54.1325 120.905,55.7254 121.352,57.2926 121.799,58.8348 122.246,60.3525 122.693,61.8463 123.139,63.3167 123.586,64.7642 124.033,66.1895 124.48,67.5929 124.927,68.975 125.374,70.3362 125.821,71.6769 126.267,72.9977 126.714,74.299 127.161,75.581 127.608,76.8444 128.055,78.0894 128.502,79.3164 128.948,80.5259 129.395,81.7181 129.842,82.8935 130.289,84.0523 130.736,85.1949 131.183,86.3217 131.63,87.4329 132.076,88.5288 132.523,89.6098 132.97,90.6761 133.417,91.728 133.864,92.7658 134.311,93.7898 134.757,94.8002 135.204,95.7973 135.651,96.7813 136.098,97.7526 136.545,98.7112 136.992,99.6574 137.439,100.592 137.885,101.514 138.332,102.424 138.779,103.323 139.226,104.211 139.673,105.088 140.12,105.953 140.566,106.809 141.013,107.653 141.46,108.487 141.907,109.311 142.354,110.126 142.801,110.93 143.248,111.724 143.694,112.51 144.141,113.285 144.588,114.052 145.035,114.81 145.482,115.559 145.929,116.299 146.375,117.03 146.822,117.753 147.269,118.468 147.716,119.174 148.163,119.873 148.61,120.563 149.057,121.246 149.503,121.921 149.95,122.589 150.397,123.249 150.844,123.902 151.291,124.547 151.738,125.186 152.185,125.817 152.631,126.442 153.078,127.059 153.525,127.67 153.972,128.275 154.419,128.873 154.866,129.464 155.312,130.05 155.759,130.629 156.206,131.202 156.653,131.769 157.1,132.33 157.547,132.885 157.994,133.434 158.44,133.978 158.887,134.516 159.334,135.048 159.781,135.575 160.228,136.097 160.675,136.613 161.121,137.124 161.568,137.63 162.015,138.13 162.462,138.626 162.909,139.117 163.356,139.603 163.803,140.084 164.249,140.56 164.696,141.031 165.143,141.498 165.59,141.96 166.037,142.418 166.484,142.871 166.93,143.32 167.377,143.765 167.824,144.205 168.271,144.641 168.718,145.073 169.165,145.5 169.612,145.924 170.058,146.343 170.505,146.758 170.952,147.17 171.399,147.578 171.846,147.981 172.293,148.381 172.739,148.778 173.186,149.17 173.633,149.559 174.08,149.944 174.527,150.326 174.974,150.704 175.421,151.078 175.867,151.449 176.314,151.817 176.761,152.181 177.208,152.542 177.655,152.9 178.102,153.255 178.548,153.606 178.995,153.954 179.442,154.299 179.889,154.64 180.336,154.979 180.783,155.315 181.23,155.647 181.676,155.977 182.123,156.304 182.57,156.627 183.017,156.948 183.464,157.266 183.911,157.581 184.357,157.894 184.804,158.203 185.251,158.51 185.698,158.814 186.145,159.116 186.592,159.415 187.039,159.711 187.485,160.005 187.932,160.296 188.379,160.584 188.826,160.87 189.273,161.154 189.72,161.435 190.166,161.713 190.613,161.99 191.06,162.263 191.507,162.535 191.954,162.804 192.401,163.071 192.848,163.335 193.294,163.597 193.741,163.857 194.188,164.115 194.635,164.37 195.082,164.624 195.529,164.875 195.975,165.124 196.422,165.371 196.869,165.615 197.316,165.858 197.763,166.099 198.21,166.337 198.657,166.574 199.103,166.808 199.55,167.041 199.997,167.271 200.444,167.5 200.891,167.726 201.338,167.951 201.785,168.174 202.231,168.395 202.678,168.614 203.125,168.831 203.572,169.046 204.019,169.26 204.466,169.471 204.912,169.681 205.359,169.889 205.806,170.096 206.253,170.3 206.7,170.503 207.147,170.705 207.594,170.904 208.04,171.102 208.487,171.298 208.934,171.492 209.381,171.685 209.828,171.876 210.275,172.066 210.721,172.254 211.168,172.44 211.615,172.625 212.062,172.808 212.509,172.99 212.956,173.17 213.403,173.349 213.849,173.526 214.296,173.701 214.743,173.875 215.19,174.048 215.637,174.219 216.084,174.389 216.53,174.557 216.977,174.724 217.424,174.889 217.871,175.053 218.318,175.216 218.765,175.377 219.212,175.537 219.658,175.695 220.105,175.852 220.552,176.008 220.999,176.162 221.446,176.315 221.893,176.466 222.339,176.617 222.786,176.766 223.233,176.914 223.68,177.06 224.127,177.205 224.574,177.349 225.021,177.492 225.467,177.633 225.914,177.773 226.361,177.912 226.808,178.05 227.255,178.186 227.702,178.321 228.148,178.455 228.595,178.588 229.042,178.72 229.489,178.85 229.936,178.98 230.383,179.108 230.83,179.235 231.276,179.36 231.723,179.485 232.17,179.609 232.617,179.731 233.064,179.852 233.511,179.973 233.957,180.092 234.404,180.21 234.851,180.326 235.298,180.442 235.745,180.557 236.192,180.67 236.639,180.783 237.085,180.895 237.532,181.005 237.979,181.114 238.426,181.223 238.873,181.33 239.32,181.436 239.766,181.541 240.213,181.646 240.66,181.749 241.107,181.851 241.554,181.952 242.001,182.052 242.448,182.152 242.894,182.25 243.341,182.347 243.788,182.443 244.235,182.539 244.682,182.633 245.129,182.726 245.575,182.819 246.022,182.91 246.469,183.001 246.916,183.09 247.363,183.179 247.81,183.266 248.257,183.353 248.703,183.439 249.15,183.524 249.597,183.608 250.044,183.691 250.491,183.773 250.938,183.854 251.385,183.935 251.831,184.014 252.278,184.093 252.725,184.17 253.172,184.247 253.619,184.323 254.066,184.398 254.512,184.472 254.959,184.546 255.406,184.618 255.853,184.69 256.3,184.76 256.747,184.83 257.194,184.899 257.64,184.967 258.087,185.035 258.534,185.101 258.981,185.167 259.428,185.232 259.875,185.296 260.321,185.359 260.768,185.421 261.215,185.483 261.662,185.543 262.109,185.603 262.556,185.662 263.003,185.721 263.449,185.778 263.896,185.835 264.343,185.891 264.79,185.946 265.237,186 265.684,186.053 266.13,186.106 266.577,186.158 267.024,186.209 267.471,186.259 267.918,186.309 268.365,186.358 268.812,186.406 269.258,186.453 269.705,186.499 270.152,186.545 270.599,186.59 271.046,186.634 271.493,186.677 271.939,186.72 272.386,186.762 272.833,186.803 273.28,186.843 273.727,186.883 274.174,186.922 274.621,186.96 275.067,186.997 275.514,187.034 275.961,187.069 276.408,187.104 276.855,187.139 277.302,187.172 277.748,187.205 278.195,187.237 278.642,187.269 279.089,187.299 279.536,187.329 279.983,187.359 280.43,187.387 280.876,187.415 281.323,187.442 281.77,187.468 282.217,187.494 282.664,187.519 283.111,187.543 283.557,187.566 284.004,187.589 284.451,187.611 284.898,187.632 285.345,187.652 285.792,187.672 286.239,187.691 286.685,187.71 287.132,187.727 287.579,187.744 288.026,187.761 288.473,187.776 288.92,187.791 289.366,187.805 289.813,187.818 290.26,187.831 290.707,187.843 291.154,187.854 291.601,187.865 292.048,187.875 292.494,187.884 292.941,187.892 293.388,187.9 293.835,187.907 294.282,187.914 294.729,187.919 295.175,187.924 295.622,187.928 296.069,187.932 296.516,187.935 296.963,187.937 297.41,187.938 297.857,187.939 298.303,187.939 298.75,187.938 299.197,187.937 299.644,187.935 300.091,187.932 300.538,187.928 300.984,187.924 301.431,187.919 301.878,187.914 302.325,187.907 302.772,187.9 303.219,187.892 303.666,187.884 304.112,187.875 304.559,187.865 305.006,187.854 305.453,187.843 305.9,187.831 306.347,187.818 306.794,187.805 307.24,187.791 307.687,187.776 308.134,187.761 308.581,187.744 309.028,187.727 309.475,187.71 309.921,187.691 310.368,187.672 310.815,187.652 311.262,187.632 311.709,187.611 312.156,187.589 312.603,187.566 313.049,187.543 313.496,187.519 313.943,187.494 314.39,187.468 314.837,187.442 315.284,187.415 315.73,187.387 316.177,187.359 316.624,187.329 317.071,187.299 317.518,187.269 317.965,187.237 318.412,187.205 318.858,187.172 319.305,187.139 319.752,187.104 320.199,187.069 320.646,187.034 321.093,186.997 321.539,186.96 321.986,186.922 322.433,186.883 322.88,186.843 323.327,186.803 323.774,186.762 324.221,186.72 324.667,186.677 325.114,186.634 325.561,186.59 326.008,186.545 326.455,186.499 326.902,186.453 327.348,186.406 327.795,186.358 328.242,186.309 328.689,186.259 329.136,186.209 329.583,186.158 330.03,186.106 330.476,186.053 330.923,186 331.37,185.946 331.817,185.891 332.264,185.835 332.711,185.778 333.157,185.721 333.604,185.662 334.051,185.603 334.498,185.543 334.945,185.483 335.392,185.421 335.839,185.359 336.285,185.296 336.732,185.232 337.179,185.167 337.626,185.101 338.073,185.035 338.52,184.967 338.966,184.899 339.413,184.83 339.86,184.76 340.307,184.69 340.754,184.618 341.201,184.546 341.648,184.472 342.094,184.398 342.541,184.323 342.988,184.247 343.435,184.17 343.882,184.093 344.329,184.014 344.775,183.935 345.222,183.854 345.669,183.773 346.116,183.691 346.563,183.608 347.01,183.524 347.457,183.439 347.903,183.353 348.35,183.266 348.797,183.179 349.244,183.09 349.691,183.001 350.138,182.91 350.585,182.819 351.031,182.726 351.478,182.633 351.925,182.539 352.372,182.443 352.819,182.347 353.266,182.25 353.712,182.152 354.159,182.052 354.606,181.952 355.053,181.851 355.5,181.749 355.947,181.646 356.393,181.541 356.84,181.436 357.287,181.33 357.734,181.223 358.181,181.114 358.628,181.005 359.075,180.895 359.521,180.783 359.968,180.67 360.415,180.557 360.862,180.442 361.309,180.326 361.756,180.21 362.203,180.092 362.649,179.973 363.096,179.852 363.543,179.731 363.99,179.609 364.437,179.485 364.884,179.36 365.33,179.235 365.777,179.108 366.224,178.98 366.671,178.85 367.118,178.72 367.565,178.588 368.012,178.455 368.458,178.321 368.905,178.186 369.352,178.05 369.799,177.912 370.246,177.773 370.693,177.633 371.139,177.492 371.586,177.349 372.033,177.205 372.48,177.06 372.927,176.914 373.374,176.766 373.821,176.617 374.267,176.466 374.714,176.315 375.161,176.162 375.608,176.008 376.055,175.852 376.502,175.695 376.948,175.537 377.395,175.377 377.842,175.216 378.289,175.053 378.736,174.889 379.183,174.724 379.63,174.557 380.076,174.389 380.523,174.219 380.97,174.048 381.417,173.875 381.864,173.701 382.311,173.526 382.757,173.349 383.204,173.17 383.651,172.99 384.098,172.808 384.545,172.625 384.992,172.44 385.439,172.254 385.885,172.066 386.332,171.876 386.779,171.685 387.226,171.492 387.673,171.298 388.12,171.102 388.566,170.904 389.013,170.705 389.46,170.503 389.907,170.3 390.354,170.096 390.801,169.889 391.248,169.681 391.694,169.471 392.141,169.26 392.588,169.046 393.035,168.831 393.482,168.614 393.929,168.395 394.375,168.174 394.822,167.951 395.269,167.726 395.716,167.5 396.163,167.271 396.61,167.041 397.057,166.808 397.503,166.574 397.95,166.337 398.397,166.099 398.844,165.858 399.291,165.615 399.738,165.371 400.185,165.124 400.631,164.875 401.078,164.624 401.525,164.37 401.972,164.115 402.419,163.857 402.866,163.597 403.312,163.335 403.759,163.071 404.206,162.804 404.653,162.535 405.1,162.263 405.547,161.99 405.993,161.713 406.44,161.435 406.887,161.154 407.334,160.87 407.781,160.584 408.228,160.296 408.675,160.005 409.121,159.711 409.568,159.415 410.015,159.116 410.462,158.814 410.909,158.51 411.356,158.203 411.803,157.894 412.249,157.581 412.696,157.266 413.143,156.948 413.59,156.627 414.037,156.304 414.484,155.977 414.93,155.647 415.377,155.315 415.824,154.979 416.271,154.64 416.718,154.299 417.165,153.954 417.612,153.606 418.058,153.255 418.505,152.9 418.952,152.542 419.399,152.181 419.846,151.817 420.293,151.449 420.739,151.078 421.186,150.704 421.633,150.326 422.08,149.944 422.527,149.559 422.974,149.17 423.421,148.778 423.867,148.381 424.314,147.981 424.761,147.578 425.208,147.17 425.655,146.758 426.102,146.343 426.548,145.924 426.995,145.5 427.442,145.073 427.889,144.641 428.336,144.205 428.783,143.765 429.23,143.32 429.676,142.871 430.123,142.418 430.57,141.96 431.017,141.498 431.464,141.031 431.911,140.56 432.357,140.084 432.804,139.603 433.251,139.117 433.698,138.626 434.145,138.13 434.592,137.63 435.039,137.124 435.485,136.613 435.932,136.097 436.379,135.575 436.826,135.048 437.273,134.516 437.72,133.978 438.166,133.434 438.613,132.885 439.06,132.33 439.507,131.769 439.954,131.202 440.401,130.629 440.848,130.05 441.294,129.464 441.741,128.873 442.188,128.275 442.635,127.67 443.082,127.059 443.529,126.442 443.975,125.817 444.422,125.186 444.869,124.547 445.316,123.902 445.763,123.249 446.21,122.589 446.657,121.921 447.103,121.246 447.55,120.563 447.997,119.873 448.444,119.174 448.891,118.468 449.338,117.753 449.784,117.03 450.231,116.299 450.678,115.559 451.125,114.81 451.572,114.052 452.019,113.285 452.466,112.51 452.912,111.724 453.359,110.93 453.806,110.126 454.253,109.311 454.7,108.487 455.147,107.653 455.594,106.809 456.04,105.953 456.487,105.088 456.934,104.211 457.381,103.323 457.828,102.424 458.275,101.514 458.721,100.592 459.168,99.6574 459.615,98.7112 460.062,97.7526 460.509,96.7813 460.956,95.7973 461.402,94.8002 461.849,93.7898 462.296,92.7658 462.743,91.728 463.19,90.6761 463.637,89.6098 464.084,88.5288 464.53,87.4329 464.977,86.3217 465.424,85.1949 465.871,84.0523 466.318,82.8935 466.765,81.7181 467.212,80.5259 467.658,79.3164 468.105,78.0894 468.552,76.8444 468.999,75.581 469.446,74.299 469.893,72.9977 470.339,71.6769 470.786,70.3362 471.233,68.975 471.68,67.5929 472.127,66.1895 472.574,64.7642 473.021,63.3167 473.467,61.8463 473.914,60.3525 474.361,58.8348 474.808,57.2926 475.255,55.7254 475.702,54.1325 476.148,52.5134 476.595,50.8674 477.042,49.1938 477.489,47.492 477.936,45.7613 478.383,44.0008 478.83,42.21 479.276,40.388 479.723,38.534 480.17,36.6471 480.617,34.7266 481.064,32.7715 481.316,31.6488" stroke-linecap="butt" fill="none"/>
   <polyline stroke="#ff0000" stroke-linejoin="round" stroke-width="0.5" stroke-dasharray="4,4,4,4" points="110.864,31.6488 114.737,45.1807 118.723,57.7574 122.709,69.131 126.694,79.4293 130.68,88.7662 134.666,97.2433 138.651,104.951 142.637,111.969 146.623,118.369 150.609,124.215 154.594,129.562 158.58,134.461 162.566,138.956 166.551,143.086 170.537,146.887 174.523,150.388 178.509,153.618 182.494,156.601 186.48,159.358 190.466,161.91 194.451,164.273 198.437,166.462 202.423,168.491 206.409,170.373 210.394,172.117 214.38,173.735 218.366,175.233 222.351,176.621 226.337,177.905 230.323,179.091 234.309,180.184 238.294,181.191 242.28,182.115 246.266,182.96 250.251,183.729 254.237,184.427 258.223,185.055 262.209,185.617 266.194,186.114 270.18,186.548 274.166,186.921 278.151,187.234 282.137,187.489 286.123,187.687 290.109,187.827 294.094,187.911 298.08,187.939 302.066,187.911 306.051,187.827 310.037,187.687 314.023,187.489 318.009,187.234 321.994,186.921 325.98,186.548 329.966,186.114 333.951,185.617 337.937,185.055 341.923,184.427 345.909,183.729 349.894,182.96 353.88,182.115 357.866,181.191 361.851,180.184 365.837,179.091 369.823,177.905 373.809,176.621 377.794,175.233 381.78,173.735 385.766,172.117 389.751,170.373 393.737,168.491 397.723,166.462 401.709,164.273 405.694,161.91 409.68,159.358 413.666,156.601 417.651,153.618 421.637,150.388 425.623,146.887 429.609,143.086 433.594,138.956 437.58,134.461 441.566,129.562 445.551,124.215 449.537,118.369 453.523,111.969 457.509,104.951 461.494,97.2433 465.48,88.7662 469.466,79.4293 473.451,69.131 477.437,57.7574 481.423,45.1807 485.296,31.6488" stroke-linecap="butt" fill="none"/>
  </g>
  <clipPath id="cp00576432">
   <polygon points="0,432 576,432 576,0 0,0"/>
  </clipPath>
  <g clip-path="url(#cp00576432)">
   <polygon points="112.041,422.373 484.119,422.373 484.119,382.249 112.041,382.249" fill="none" shape-rendering="crispEdges"/>
   <polyline stroke="#262626" stroke-linejoin="miter" stroke-width="0.5" stroke-dasharray="16,0" points="112.041,422.373 484.119,422.373" stroke-linecap="square" fill="none"/>
   <polyline stroke="#262626" stroke-linejoin="miter" stroke-width="0.5" stroke-dasharray="16,0" points="112.041,382.249 484.119,382.249" stroke-linecap="square" fill="none"/>
   <polyline stroke="#262626" stroke-linejoin="miter" stroke-width="0.5" stroke-dasharray="16,0" points="112.041,422.373 112.041,382.249" stroke-linecap="square" fill="none"/>
   <polyline stroke="#262626" stroke-linejoin="miter" stroke-width="0.5" stroke-dasharray="16,0" points="484.119,422.373 484.119,382.249" stroke-linecap="square" fill="none"/>
   <text font-family="FreeSans" xml:space="preserve" transform="translate(158.698,397.28) rotate(-0,-0,-5)" font-weight="normal" font-size="9" font-style="normal">
    <tspan fill="rgb(0,0,0)" x="0 4 9 14 17 21 " y="-2">sec(x)</tspan>
   </text>
   <text font-family="FreeSans" xml:space="preserve" transform="translate(158.698,416.342) rotate(-0,-0,-4)" font-weight="normal" font-size="9" font-style="normal">
    <tspan fill="rgb(0,0,0)" x="0 5 10 15 20 25 29 33 37 41 46 51 54 59 64 69 74 79 84 89 91 96 98 103 108 113 117 121 125 129 134 137 142 147 152 157 159 164 166 171 176 180 184 188 192 197 200 205 210 215 217 222 224 229 233 237 241 245 250 253 258 263 265 270 272 276 280 284 289 292 297 299 304 306 " y="-0">50521*x**10/3628800 + 277*x**8/8064 + 61*x**6/720 + 5*x**4/24 + x**2/2 + 1</tspan>
   </text>
   <polyline stroke="#000000" stroke-linejoin="round" stroke-width="0.5" points="117.577,392.28 153.162,392.28" stroke-linecap="butt" fill="none"/>
   <polyline stroke="#ff0000" stroke-linejoin="round" stroke-width="0.5" stroke-dasharray="4,4,4,4" points="117.577,412.342 153.162,412.342" stroke-linecap="butt" fill="none"/>
  </g>
 </g>
</svg>
