<?xml version='1.0' encoding='UTF-8' standalone='no'?>
<svg height="432pt" xmlns:xlink="http://www.w3.org/1999/xlink" viewBox="0 0 576 432" xmlns="http://www.w3.org/2000/svg" width="576pt">
 <title>Taylor Series for tan(x)</title>
 <desc>
@author: Oscar Veliz
Creator: GL2PS 1.4.0, (C) 1999-2017 C. Geuzaine
For: Octave
CreationDate: Thu Feb 20 13:16:42 2020
</desc>
 <defs/>
 <polygon points="0,0 576,0 576,432 0,432" fill="none"/>
 <g>
  <polygon points="0,432 576,432 576,0 0,0" fill="none" shape-rendering="crispEdges"/>
  <clipPath id="cp00576432">
   <polygon points="0,432 576,432 576,0 0,0"/>
  </clipPath>
  <g clip-path="url(#cp00576432)">
   <polygon points="74.88,343.917 521.28,343.917 521.28,31.9608 74.88,31.9608" fill="none" shape-rendering="crispEdges"/>
   <polyline points="74.88,343.917 74.88,339.454" stroke-linecap="butt" fill="none" stroke-width="0.5" stroke="#262626" stroke-linejoin="miter"/>
   <polyline points="74.88,31.9608 74.88,36.4242" stroke-linecap="butt" fill="none" stroke-width="0.5" stroke="#262626" stroke-linejoin="miter"/>
   <polyline points="186.48,343.917 186.48,339.454" stroke-linecap="butt" fill="none" stroke-width="0.5" stroke="#262626" stroke-linejoin="miter"/>
   <polyline points="186.48,31.9608 186.48,36.4242" stroke-linecap="butt" fill="none" stroke-width="0.5" stroke="#262626" stroke-linejoin="miter"/>
   <polyline points="298.08,343.917 298.08,339.454" stroke-linecap="butt" fill="none" stroke-width="0.5" stroke="#262626" stroke-linejoin="miter"/>
   <polyline points="298.08,31.9608 298.08,36.4242" stroke-linecap="butt" fill="none" stroke-width="0.5" stroke="#262626" stroke-linejoin="miter"/>
   <polyline points="409.68,343.917 409.68,339.454" stroke-linecap="butt" fill="none" stroke-width="0.5" stroke="#262626" stroke-linejoin="miter"/>
   <polyline points="409.68,31.9608 409.68,36.4242" stroke-linecap="butt" fill="none" stroke-width="0.5" stroke="#262626" stroke-linejoin="miter"/>
   <polyline points="521.28,343.917 521.28,339.454" stroke-linecap="butt" fill="none" stroke-width="0.5" stroke="#262626" stroke-linejoin="miter"/>
   <polyline points="521.28,31.9608 521.28,36.4242" stroke-linecap="butt" fill="none" stroke-width="0.5" stroke="#262626" stroke-linejoin="miter"/>
   <text font-weight="normal" transform="translate(70.38,359.416) rotate(-0,4.5,-8)" xml:space="preserve" font-size="10" font-style="normal" font-family="FreeSans">
    <tspan y="-0" x="0 3 " fill="rgb(38,38,38)">-1</tspan>
   </text>
   <text font-weight="normal" transform="translate(177.48,359.416) rotate(-0,9,-8)" xml:space="preserve" font-size="10" font-style="normal" font-family="FreeSans">
    <tspan y="-0" x="0 3 9 12 " fill="rgb(38,38,38)">-0.5</tspan>
   </text>
   <text font-weight="normal" transform="translate(295.08,359.416) rotate(-0,3,-8)" xml:space="preserve" font-size="10" font-style="normal" font-family="FreeSans">
    <tspan y="-0" x="0 " fill="rgb(38,38,38)">0</tspan>
   </text>
   <text font-weight="normal" transform="translate(402.18,359.416) rotate(-0,7.5,-8)" xml:space="preserve" font-size="10" font-style="normal" font-family="FreeSans">
    <tspan y="-0" x="0 6 9 " fill="rgb(38,38,38)">0.5</tspan>
   </text>
   <text font-weight="normal" transform="translate(518.28,359.416) rotate(-0,3,-8)" xml:space="preserve" font-size="10" font-style="normal" font-family="FreeSans">
    <tspan y="-0" x="0 " fill="rgb(38,38,38)">1</tspan>
   </text>
   <polyline points="74.88,343.917 79.348,343.917" stroke-linecap="butt" fill="none" stroke-width="0.5" stroke="#262626" stroke-linejoin="miter"/>
   <polyline points="521.28,343.917 516.812,343.917" stroke-linecap="butt" fill="none" stroke-width="0.5" stroke="#262626" stroke-linejoin="miter"/>
   <polyline points="74.88,265.928 79.348,265.928" stroke-linecap="butt" fill="none" stroke-width="0.5" stroke="#262626" stroke-linejoin="miter"/>
   <polyline points="521.28,265.928 516.812,265.928" stroke-linecap="butt" fill="none" stroke-width="0.5" stroke="#262626" stroke-linejoin="miter"/>
   <polyline points="74.88,187.939 79.348,187.939" stroke-linecap="butt" fill="none" stroke-width="0.5" stroke="#262626" stroke-linejoin="miter"/>
   <polyline points="521.28,187.939 516.812,187.939" stroke-linecap="butt" fill="none" stroke-width="0.5" stroke="#262626" stroke-linejoin="miter"/>
   <polyline points="74.88,109.95 79.348,109.95" stroke-linecap="butt" fill="none" stroke-width="0.5" stroke="#262626" stroke-linejoin="miter"/>
   <polyline points="521.28,109.95 516.812,109.95" stroke-linecap="butt" fill="none" stroke-width="0.5" stroke="#262626" stroke-linejoin="miter"/>
   <polyline points="74.88,31.9608 79.348,31.9608" stroke-linecap="butt" fill="none" stroke-width="0.5" stroke="#262626" stroke-linejoin="miter"/>
   <polyline points="521.28,31.9608 516.812,31.9608" stroke-linecap="butt" fill="none" stroke-width="0.5" stroke="#262626" stroke-linejoin="miter"/>
   <text font-weight="normal" transform="translate(60.8755,347.917) rotate(-0,9,-4)" xml:space="preserve" font-size="10" font-style="normal" font-family="FreeSans">
    <tspan y="-0" x="0 3 " fill="rgb(38,38,38)">-2</tspan>
   </text>
   <text font-weight="normal" transform="translate(60.8755,269.928) rotate(-0,9,-4)" xml:space="preserve" font-size="10" font-style="normal" font-family="FreeSans">
    <tspan y="-0" x="0 3 " fill="rgb(38,38,38)">-1</tspan>
   </text>
   <text font-weight="normal" transform="translate(63.8755,191.939) rotate(-0,6,-4)" xml:space="preserve" font-size="10" font-style="normal" font-family="FreeSans">
    <tspan y="-0" x="0 " fill="rgb(38,38,38)">0</tspan>
   </text>
   <text font-weight="normal" transform="translate(63.8755,113.95) rotate(-0,6,-4)" xml:space="preserve" font-size="10" font-style="normal" font-family="FreeSans">
    <tspan y="-0" x="0 " fill="rgb(38,38,38)">1</tspan>
   </text>
   <text font-weight="normal" transform="translate(63.8755,35.9608) rotate(-0,6,-4)" xml:space="preserve" font-size="10" font-style="normal" font-family="FreeSans">
    <tspan y="-0" x="0 " fill="rgb(38,38,38)">2</tspan>
   </text>
   <polyline points="74.88,343.917 521.28,343.917" stroke-linecap="square" fill="none" stroke-dasharray="16,0" stroke-width="0.5" stroke="#262626" stroke-linejoin="miter"/>
   <polyline points="74.88,31.9608 521.28,31.9608" stroke-linecap="square" fill="none" stroke-dasharray="16,0" stroke-width="0.5" stroke="#262626" stroke-linejoin="miter"/>
   <polyline points="74.88,343.917 74.88,31.9608" stroke-linecap="square" fill="none" stroke-dasharray="16,0" stroke-width="0.5" stroke="#262626" stroke-linejoin="miter"/>
   <polyline points="521.28,343.917 521.28,31.9608" stroke-linecap="square" fill="none" stroke-dasharray="16,0" stroke-width="0.5" stroke="#262626" stroke-linejoin="miter"/>
   <text font-weight="bold" transform="translate(242.58,21.9608) rotate(-0,55.5,0)" xml:space="preserve" font-size="11" font-style="normal" font-family="FreeSans">
    <tspan y="-3" x="0 7 13 19 22 29 33 36 43 49 53 56 62 68 71 78 84 90 93 99 105 " fill="rgb(0,0,0)">Taylor Series n=5 a=0</tspan>
   </text>
   <text font-weight="normal" transform="translate(53.3755,187.939) rotate(-90,2.5,0)" xml:space="preserve" font-size="11" font-style="normal" font-family="FreeSans">
    <tspan y="-2" x="0 " fill="rgb(38,38,38)">y</tspan>
   </text>
   <text font-weight="normal" transform="translate(295.58,371.416) rotate(-0,2.5,-7)" xml:space="preserve" font-size="11" font-style="normal" font-family="FreeSans">
    <tspan y="-0" x="0 " fill="rgb(38,38,38)">x</tspan>
   </text>
   <polyline points="74.88,309.4 75.3269,308.867 75.7737,308.337 76.2205,307.81 76.6674,307.287 77.1142,306.767 77.5611,306.25 78.0079,305.736 78.4548,305.225 78.9016,304.717 79.3485,304.212 79.7953,303.711 80.2421,303.212 80.689,302.716 81.1358,302.223 81.5827,301.733 82.0295,301.246 82.4764,300.762 82.9232,300.281 83.3701,299.802 83.8169,299.326 84.2638,298.853 84.7106,298.382 85.1575,297.914 85.6043,297.449 86.0512,296.986 86.498,296.526 86.9449,296.068 87.3917,295.613 87.8386,295.161 88.2854,294.711 88.7322,294.263 89.1791,293.818 89.6259,293.376 90.0728,292.935 90.5196,292.497 90.9665,292.062 91.4133,291.628 91.8602,291.197 92.307,290.769 92.7539,290.342 93.2007,289.918 93.6476,289.496 94.0944,289.076 94.5413,288.659 94.9881,288.243 95.435,287.83 95.8818,287.419 96.3286,287.009 96.7755,286.602 97.2223,286.197 97.6692,285.794 98.116,285.393 98.5629,284.995 99.0097,284.598 99.4566,284.203 99.9034,283.81 100.35,283.418 100.797,283.029 101.244,282.642 101.691,282.257 102.138,281.873 102.584,281.491 103.031,281.111 103.478,280.733 103.925,280.357 104.372,279.982 104.819,279.61 105.266,279.239 105.712,278.87 106.159,278.502 106.606,278.136 107.053,277.772 107.5,277.41 107.947,277.049 108.394,276.69 108.84,276.332 109.287,275.976 109.734,275.622 110.181,275.269 110.628,274.918 111.075,274.569 111.521,274.221 111.968,273.874 112.415,273.529 112.862,273.186 113.309,272.844 113.756,272.503 114.203,272.164 114.649,271.827 115.096,271.491 115.543,271.156 115.99,270.823 116.437,270.491 116.884,270.161 117.33,269.832 117.777,269.504 118.224,269.178 118.671,268.853 119.118,268.53 119.565,268.207 120.012,267.887 120.458,267.567 120.905,267.249 121.352,266.932 121.799,266.616 122.246,266.302 122.693,265.989 123.139,265.677 123.586,265.366 124.033,265.057 124.48,264.748 124.927,264.441 125.374,264.136 125.821,263.831 126.267,263.528 126.714,263.225 127.161,262.924 127.608,262.625 128.055,262.326 128.502,262.028 128.948,261.732 129.395,261.436 129.842,261.142 130.289,260.849 130.736,260.557 131.183,260.266 131.63,259.976 132.076,259.687 132.523,259.4 132.97,259.113 133.417,258.827 133.864,258.543 134.311,258.259 134.757,257.976 135.204,257.695 135.651,257.414 136.098,257.135 136.545,256.856 136.992,256.579 137.439,256.302 137.885,256.026 138.332,255.752 138.779,255.478 139.226,255.205 139.673,254.934 140.12,254.663 140.566,254.393 141.013,254.124 141.46,253.855 141.907,253.588 142.354,253.322 142.801,253.057 143.248,252.792 143.694,252.528 144.141,252.266 144.588,252.004 145.035,251.743 145.482,251.482 145.929,251.223 146.375,250.964 146.822,250.707 147.269,250.45 147.716,250.194 148.163,249.939 148.61,249.684 149.057,249.431 149.503,249.178 149.95,248.926 150.397,248.675 150.844,248.424 151.291,248.175 151.738,247.926 152.184,247.678 152.631,247.43 153.078,247.184 153.525,246.938 153.972,246.693 154.419,246.448 154.866,246.205 155.312,245.962 155.759,245.719 156.206,245.478 156.653,245.237 157.1,244.997 157.547,244.758 157.994,244.519 158.44,244.281 158.887,244.044 159.334,243.807 159.781,243.571 160.228,243.336 160.675,243.102 161.121,242.868 161.568,242.634 162.015,242.402 162.462,242.17 162.909,241.938 163.356,241.708 163.803,241.478 164.249,241.248 164.696,241.02 165.143,240.791 165.59,240.564 166.037,240.337 166.484,240.111 166.93,239.885 167.377,239.66 167.824,239.435 168.271,239.211 168.718,238.988 169.165,238.765 169.612,238.543 170.058,238.322 170.505,238.101 170.952,237.88 171.399,237.66 171.846,237.441 172.293,237.222 172.739,237.004 173.186,236.786 173.633,236.569 174.08,236.353 174.527,236.137 174.974,235.921 175.421,235.706 175.867,235.492 176.314,235.278 176.761,235.064 177.208,234.852 177.655,234.639 178.102,234.427 178.548,234.216 178.995,234.005 179.442,233.795 179.889,233.585 180.336,233.375 180.783,233.167 181.23,232.958 181.676,232.75 182.123,232.543 182.57,232.336 183.017,232.129 183.464,231.923 183.911,231.718 184.357,231.513 184.804,231.308 185.251,231.104 185.698,230.9 186.145,230.697 186.592,230.494 187.039,230.292 187.485,230.09 187.932,229.888 188.379,229.687 188.826,229.486 189.273,229.286 189.72,229.086 190.166,228.887 190.613,228.688 191.06,228.489 191.507,228.291 191.954,228.094 192.401,227.896 192.848,227.699 193.294,227.503 193.741,227.307 194.188,227.111 194.635,226.916 195.082,226.721 195.529,226.526 195.975,226.332 196.422,226.138 196.869,225.945 197.316,225.752 197.763,225.559 198.21,225.367 198.657,225.175 199.103,224.983 199.55,224.792 199.997,224.601 200.444,224.411 200.891,224.221 201.338,224.031 201.785,223.842 202.231,223.653 202.678,223.464 203.125,223.276 203.572,223.088 204.019,222.9 204.466,222.712 204.912,222.525 205.359,222.339 205.806,222.152 206.253,221.966 206.7,221.781 207.147,221.595 207.594,221.41 208.04,221.226 208.487,221.041 208.934,220.857 209.381,220.673 209.828,220.49 210.275,220.307 210.721,220.124 211.168,219.941 211.615,219.759 212.062,219.577 212.509,219.395 212.956,219.214 213.403,219.033 213.849,218.852 214.296,218.671 214.743,218.491 215.19,218.311 215.637,218.132 216.084,217.952 216.53,217.773 216.977,217.594 217.424,217.416 217.871,217.237 218.318,217.059 218.765,216.881 219.212,216.704 219.658,216.527 220.105,216.35 220.552,216.173 220.999,215.997 221.446,215.82 221.893,215.644 222.339,215.469 222.786,215.293 223.233,215.118 223.68,214.943 224.127,214.768 224.574,214.594 225.021,214.42 225.467,214.245 225.914,214.072 226.361,213.898 226.808,213.725 227.255,213.552 227.702,213.379 228.148,213.206 228.595,213.034 229.042,212.862 229.489,212.69 229.936,212.518 230.383,212.346 230.83,212.175 231.276,212.004 231.723,211.833 232.17,211.662 232.617,211.492 233.064,211.322 233.511,211.152 233.957,210.982 234.404,210.812 234.851,210.643 235.298,210.473 235.745,210.304 236.192,210.135 236.639,209.967 237.085,209.798 237.532,209.63 237.979,209.462 238.426,209.294 238.873,209.126 239.32,208.959 239.766,208.791 240.213,208.624 240.66,208.457 241.107,208.29 241.554,208.123 242.001,207.957 242.448,207.791 242.894,207.624 243.341,207.458 243.788,207.293 244.235,207.127 244.682,206.961 245.129,206.796 245.575,206.631 246.022,206.466 246.469,206.301 246.916,206.136 247.363,205.972 247.81,205.807 248.257,205.643 248.703,205.479 249.15,205.315 249.597,205.151 250.044,204.987 250.491,204.824 250.938,204.661 251.385,204.497 251.831,204.334 252.278,204.171 252.725,204.008 253.172,203.846 253.619,203.683 254.066,203.521 254.512,203.358 254.959,203.196 255.406,203.034 255.853,202.872 256.3,202.71 256.747,202.549 257.194,202.387 257.64,202.226 258.087,202.065 258.534,201.903 258.981,201.742 259.428,201.581 259.875,201.42 260.321,201.26 260.768,201.099 261.215,200.938 261.662,200.778 262.109,200.618 262.556,200.458 263.003,200.297 263.449,200.137 263.896,199.978 264.343,199.818 264.79,199.658 265.237,199.498 265.684,199.339 266.13,199.179 266.577,199.02 267.024,198.861 267.471,198.702 267.918,198.543 268.365,198.384 268.812,198.225 269.258,198.066 269.705,197.907 270.152,197.749 270.599,197.59 271.046,197.432 271.493,197.273 271.939,197.115 272.386,196.957 272.833,196.798 273.28,196.64 273.727,196.482 274.174,196.324 274.621,196.166 275.067,196.009 275.514,195.851 275.961,195.693 276.408,195.535 276.855,195.378 277.302,195.22 277.748,195.063 278.195,194.905 278.642,194.748 279.089,194.591 279.536,194.434 279.983,194.276 280.43,194.119 280.876,193.962 281.323,193.805 281.77,193.648 282.217,193.491 282.664,193.334 283.111,193.177 283.557,193.021 284.004,192.864 284.451,192.707 284.898,192.55 285.345,192.394 285.792,192.237 286.239,192.08 286.685,191.924 287.132,191.767 287.579,191.611 288.026,191.454 288.473,191.298 288.92,191.142 289.366,190.985 289.813,190.829 290.26,190.672 290.707,190.516 291.154,190.36 291.601,190.204 292.048,190.047 292.494,189.891 292.941,189.735 293.388,189.579 293.835,189.422 294.282,189.266 294.729,189.11 295.175,188.954 295.622,188.798 296.069,188.642 296.516,188.485 296.963,188.329 297.41,188.173 297.857,188.017 298.303,187.861 298.75,187.705 299.197,187.549 299.644,187.393 300.091,187.236 300.538,187.08 300.984,186.924 301.431,186.768 301.878,186.612 302.325,186.456 302.772,186.299 303.219,186.143 303.666,185.987 304.112,185.831 304.559,185.674 305.006,185.518 305.453,185.362 305.9,185.206 306.347,185.049 306.794,184.893 307.24,184.736 307.687,184.58 308.134,184.424 308.581,184.267 309.028,184.111 309.475,183.954 309.921,183.798 310.368,183.641 310.815,183.484 311.262,183.328 311.709,183.171 312.156,183.014 312.603,182.857 313.049,182.701 313.496,182.544 313.943,182.387 314.39,182.23 314.837,182.073 315.284,181.916 315.73,181.759 316.177,181.602 316.624,181.444 317.071,181.287 317.518,181.13 317.965,180.973 318.412,180.815 318.858,180.658 319.305,180.5 319.752,180.343 320.199,180.185 320.646,180.027 321.093,179.869 321.539,179.712 321.986,179.554 322.433,179.396 322.88,179.238 323.327,179.08 323.774,178.921 324.221,178.763 324.667,178.605 325.114,178.446 325.561,178.288 326.008,178.129 326.455,177.971 326.902,177.812 327.348,177.653 327.795,177.494 328.242,177.335 328.689,177.176 329.136,177.017 329.583,176.858 330.03,176.699 330.476,176.539 330.923,176.38 331.37,176.22 331.817,176.06 332.264,175.9 332.711,175.741 333.157,175.581 333.604,175.42 334.051,175.26 334.498,175.1 334.945,174.939 335.392,174.779 335.839,174.618 336.285,174.458 336.732,174.297 337.179,174.136 337.626,173.975 338.073,173.813 338.52,173.652 338.966,173.491 339.413,173.329 339.86,173.168 340.307,173.006 340.754,172.844 341.201,172.682 341.648,172.52 342.094,172.357 342.541,172.195 342.988,172.032 343.435,171.87 343.882,171.707 344.329,171.544 344.775,171.381 345.222,171.217 345.669,171.054 346.116,170.891 346.563,170.727 347.01,170.563 347.457,170.399 347.903,170.235 348.35,170.071 348.797,169.906 349.244,169.742 349.691,169.577 350.138,169.412 350.585,169.247 351.031,169.082 351.478,168.917 351.925,168.751 352.372,168.585 352.819,168.42 353.266,168.254 353.712,168.087 354.159,167.921 354.606,167.755 355.053,167.588 355.5,167.421 355.947,167.254 356.393,167.087 356.84,166.919 357.287,166.752 357.734,166.584 358.181,166.416 358.628,166.248 359.075,166.08 359.521,165.911 359.968,165.743 360.415,165.574 360.862,165.405 361.309,165.235 361.756,165.066 362.203,164.896 362.649,164.726 363.096,164.556 363.543,164.386 363.99,164.216 364.437,164.045 364.884,163.874 365.33,163.703 365.777,163.532 366.224,163.36 366.671,163.188 367.118,163.016 367.565,162.844 368.012,162.672 368.458,162.499 368.905,162.326 369.352,162.153 369.799,161.98 370.246,161.806 370.693,161.632 371.139,161.458 371.586,161.284 372.033,161.11 372.48,160.935 372.927,160.76 373.374,160.585 373.821,160.409 374.267,160.234 374.714,160.058 375.161,159.881 375.608,159.705 376.055,159.528 376.502,159.351 376.948,159.174 377.395,158.997 377.842,158.819 378.289,158.641 378.736,158.462 379.183,158.284 379.63,158.105 380.076,157.926 380.523,157.746 380.97,157.567 381.417,157.387 381.864,157.207 382.311,157.026 382.757,156.845 383.204,156.664 383.651,156.483 384.098,156.301 384.545,156.119 384.992,155.937 385.439,155.754 385.885,155.571 386.332,155.388 386.779,155.205 387.226,155.021 387.673,154.837 388.12,154.652 388.566,154.468 389.013,154.283 389.46,154.097 389.907,153.912 390.354,153.726 390.801,153.539 391.248,153.353 391.694,153.165 392.141,152.978 392.588,152.79 393.035,152.602 393.482,152.414 393.929,152.225 394.375,152.036 394.822,151.847 395.269,151.657 395.716,151.467 396.163,151.277 396.61,151.086 397.057,150.895 397.503,150.703 397.95,150.511 398.397,150.319 398.844,150.126 399.291,149.933 399.738,149.74 400.185,149.546 400.631,149.352 401.078,149.157 401.525,148.962 401.972,148.767 402.419,148.571 402.866,148.375 403.312,148.179 403.759,147.982 404.206,147.784 404.653,147.587 405.1,147.389 405.547,147.19 405.993,146.991 406.44,146.792 406.887,146.592 407.334,146.392 407.781,146.191 408.228,145.99 408.675,145.788 409.121,145.586 409.568,145.384 410.015,145.181 410.462,144.978 410.909,144.774 411.356,144.57 411.803,144.365 412.249,144.16 412.696,143.955 413.143,143.749 413.59,143.542 414.037,143.335 414.484,143.128 414.93,142.92 415.377,142.711 415.824,142.503 416.271,142.293 416.718,142.083 417.165,141.873 417.612,141.662 418.058,141.451 418.505,141.239 418.952,141.026 419.399,140.814 419.846,140.6 420.293,140.386 420.739,140.172 421.186,139.957 421.633,139.741 422.08,139.525 422.527,139.309 422.974,139.092 423.421,138.874 423.867,138.656 424.314,138.437 424.761,138.218 425.208,137.998 425.655,137.777 426.102,137.556 426.548,137.335 426.995,137.113 427.442,136.89 427.889,136.667 428.336,136.443 428.783,136.218 429.23,135.993 429.676,135.767 430.123,135.541 430.57,135.314 431.017,135.087 431.464,134.858 431.911,134.63 432.357,134.4 432.804,134.17 433.251,133.94 433.698,133.708 434.145,133.476 434.592,133.244 435.039,133.01 435.485,132.776 435.932,132.542 436.379,132.307 436.826,132.071 437.273,131.834 437.72,131.597 438.166,131.359 438.613,131.12 439.06,130.881 439.507,130.641 439.954,130.4 440.401,130.159 440.848,129.916 441.294,129.673 441.741,129.43 442.188,129.185 442.635,128.94 443.082,128.694 443.529,128.448 443.975,128.2 444.422,127.952 444.869,127.703 445.316,127.454 445.763,127.203 446.21,126.952 446.657,126.7 447.103,126.447 447.55,126.194 447.997,125.939 448.444,125.684 448.891,125.428 449.338,125.171 449.784,124.914 450.231,124.655 450.678,124.396 451.125,124.135 451.572,123.874 452.019,123.612 452.466,123.35 452.912,123.086 453.359,122.821 453.806,122.556 454.253,122.29 454.7,122.022 455.147,121.754 455.594,121.485 456.04,121.215 456.487,120.944 456.934,120.673 457.381,120.4 457.828,120.126 458.275,119.852 458.721,119.576 459.168,119.299 459.615,119.022 460.062,118.743 460.509,118.464 460.956,118.183 461.402,117.902 461.849,117.619 462.296,117.335 462.743,117.051 463.19,116.765 463.637,116.478 464.084,116.191 464.53,115.902 464.977,115.612 465.424,115.321 465.871,115.029 466.318,114.736 466.765,114.442 467.212,114.146 467.658,113.85 468.105,113.552 468.552,113.253 468.999,112.954 469.446,112.652 469.893,112.35 470.339,112.047 470.786,111.742 471.233,111.437 471.68,111.13 472.127,110.821 472.574,110.512 473.021,110.201 473.467,109.889 473.914,109.576 474.361,109.262 474.808,108.946 475.255,108.629 475.702,108.311 476.148,107.991 476.595,107.671 477.042,107.348 477.489,107.025 477.936,106.7 478.383,106.374 478.83,106.046 479.276,105.717 479.723,105.387 480.17,105.055 480.617,104.722 481.064,104.387 481.511,104.051 481.957,103.714 482.404,103.375 482.851,103.034 483.298,102.692 483.745,102.349 484.192,102.004 484.639,101.657 485.085,101.309 485.532,100.96 485.979,100.609 486.426,100.256 486.873,99.9017 487.32,99.5458 487.766,99.1883 488.213,98.8292 488.66,98.4684 489.107,98.1059 489.554,97.7418 490.001,97.3759 490.448,97.0084 490.894,96.6392 491.341,96.2682 491.788,95.8955 492.235,95.521 492.682,95.1447 493.129,94.7666 493.576,94.3867 494.022,94.005 494.469,93.6215 494.916,93.236 495.363,92.8487 495.81,92.4595 496.257,92.0684 496.703,91.6754 497.15,91.2804 497.597,90.8834 498.044,90.4845 498.491,90.0836 498.938,89.6806 499.384,89.2756 499.831,88.8685 500.278,88.4594 500.725,88.0482 501.172,87.6349 501.619,87.2194 502.066,86.8018 502.512,86.382 502.959,85.96 503.406,85.5357 503.853,85.1093 504.3,84.6806 504.747,84.2496 505.193,83.8163 505.64,83.3807 506.087,82.9428 506.534,82.5025 506.981,82.0598 507.428,81.6147 507.875,81.1671 508.321,80.7171 508.768,80.2646 509.215,79.8096 509.662,79.352 510.109,78.8919 510.556,78.4293 511.003,77.964 511.449,77.496 511.896,77.0255 512.343,76.5522 512.79,76.0762 513.237,75.5974 513.684,75.116 514.13,74.6317 514.577,74.1445 515.024,73.6546 515.471,73.1617 515.918,72.6659 516.365,72.1672 516.812,71.6655 517.258,71.1608 517.705,70.6531 518.152,70.1423 518.599,69.6284 519.046,69.1114 519.493,68.5912 519.939,68.0678 520.386,67.5412 520.833,67.0114 521.28,66.4782" stroke-linecap="butt" fill="none" stroke-width="0.5" stroke="#000000" stroke-linejoin="round"/>
   <polyline points="74.88,302.323 90.8229,288.35 106.766,275.969 122.709,264.94 138.651,255.053 154.594,246.123 170.537,237.988 186.48,230.508 202.423,223.56 218.366,217.037 234.309,210.848 250.251,204.911 266.194,199.157 282.137,193.519 298.08,187.939 314.023,182.359 329.966,176.721 345.909,170.967 361.851,165.03 377.794,158.841 393.737,152.318 409.68,145.37 425.623,137.89 441.566,129.755 457.509,120.825 473.451,110.938 489.394,99.9093 505.337,87.5276 521.28,73.555" stroke-linecap="butt" fill="none" stroke-dasharray="4,4,4,4" stroke-width="0.5" stroke="#ff0000" stroke-linejoin="round"/>
  </g>
  <clipPath id="cp00576432">
   <polygon points="0,432 576,432 576,0 0,0"/>
  </clipPath>
  <g clip-path="url(#cp00576432)">
   <polygon points="227.755,422.373 368.405,422.373 368.405,382.249 227.755,382.249" fill="none" shape-rendering="crispEdges"/>
   <polyline points="227.755,422.373 368.405,422.373" stroke-linecap="square" fill="none" stroke-dasharray="16,0" stroke-width="0.5" stroke="#262626" stroke-linejoin="miter"/>
   <polyline points="227.755,382.249 368.405,382.249" stroke-linecap="square" fill="none" stroke-dasharray="16,0" stroke-width="0.5" stroke="#262626" stroke-linejoin="miter"/>
   <polyline points="227.755,422.373 227.755,382.249" stroke-linecap="square" fill="none" stroke-dasharray="16,0" stroke-width="0.5" stroke="#262626" stroke-linejoin="miter"/>
   <polyline points="368.405,422.373 368.405,382.249" stroke-linecap="square" fill="none" stroke-dasharray="16,0" stroke-width="0.5" stroke="#262626" stroke-linejoin="miter"/>
   <text font-weight="normal" transform="translate(274.412,397.28) rotate(-0,-0,-5)" xml:space="preserve" font-size="9" font-style="normal" font-family="FreeSans">
    <tspan y="-2" x="0 3 8 13 16 20 " fill="rgb(0,0,0)">tan(x)</tspan>
   </text>
   <text font-weight="normal" transform="translate(274.412,416.342) rotate(-0,-0,-4)" xml:space="preserve" font-size="9" font-style="normal" font-family="FreeSans">
    <tspan y="-0" x="0 5 9 13 17 21 26 29 34 39 41 46 48 52 56 60 65 68 73 75 80 82 " fill="rgb(0,0,0)">2*x**5/15 + x**3/3 + x</tspan>
   </text>
   <polyline points="233.291,392.28 268.876,392.28" stroke-linecap="butt" fill="none" stroke-width="0.5" stroke="#000000" stroke-linejoin="round"/>
   <polyline points="233.291,412.342 268.876,412.342" stroke-linecap="butt" fill="none" stroke-dasharray="4,4,4,4" stroke-width="0.5" stroke="#ff0000" stroke-linejoin="round"/>
  </g>
 </g>
</svg>
